<svg width="64" height="64" viewBox="0 0 64 64" fill="none" xmlns="http://www.w3.org/2000/svg">
<path d="M52.0961 43.1359C57.2161 36.4799 59.6481 26.6239 60.2881 18.8159H60.0321C61.1841 17.6639 61.9521 16.5119 62.2081 15.2319L16.3841 31.8719C16.8961 33.5359 17.5361 35.0719 18.1761 36.6079C15.6161 36.0959 13.0561 35.1999 11.0081 33.7919L7.80811 34.9439C11.6481 38.5279 16.7681 41.5999 21.1201 43.2639C16.0001 45.0559 12.6721 47.7439 12.6721 50.6879C12.6721 52.8639 14.4641 54.9119 17.5361 56.5759L53.7601 43.6479C53.2481 43.5199 52.7361 43.2639 52.0961 43.1359Z" fill="#00C8E2"/>
<path d="M7.04011 28.8001C7.80811 31.1041 9.34411 32.6401 11.1361 33.9201L16.5121 32.0001C16.1281 30.9761 15.8721 29.9521 15.6161 28.9281C13.3121 26.3681 4.48011 21.3761 7.04011 28.8001Z" fill="#031326"/>
<path d="M7.03988 28.7999C4.47988 21.3759 13.3119 26.3679 15.6159 28.7999C15.8719 29.8239 16.1279 30.8479 16.5119 31.8719L62.3359 15.2319C63.6159 9.47188 55.2959 3.32788 37.2479 3.32788C15.2319 3.32788 7.67988 12.5439 14.3359 18.9439H13.9519C13.9519 19.3279 14.0799 19.8399 14.0799 20.2239L13.9519 20.0959C13.9519 20.0959 13.9519 20.7359 13.1839 20.8639C11.3919 21.1199 4.35188 17.7919 2.81588 24.3199C2.04788 27.9039 4.35188 31.7439 8.06388 35.1999L11.2639 34.0479C9.21588 32.6399 7.80788 31.1039 7.03988 28.7999Z" fill="#00DFFC"/>
<path d="M7.04011 28.9279C8.70411 33.7919 13.5681 35.8399 18.3041 36.8639C17.1521 34.3039 16.2561 31.6159 15.6161 29.0559C13.3121 26.4959 4.48011 21.3759 7.04011 28.9279Z" fill="#031326"/>
<path d="M53.2479 41.728C53.1199 41.728 52.8639 41.6 52.7359 41.6C52.0959 41.344 51.3279 41.6 50.9439 42.112C47.2319 47.104 42.4959 49.664 36.7359 49.664C31.6159 49.664 27.2639 47.488 23.6799 43.392L23.4239 43.008H23.0399C22.2719 42.752 21.3759 42.368 20.4799 41.984C12.1599 38.4 2.68791 30.592 3.96791 25.088C4.73591 22.016 6.65591 21.888 10.4959 22.656C11.2639 22.784 12.0319 22.912 12.5439 22.912L20.9919 25.216C24.9599 26.368 30.0799 27.136 36.3519 27.136C46.5919 27.136 53.6319 25.216 57.9839 22.528C57.5999 25.216 57.0879 27.776 56.3199 30.208C56.0639 31.104 56.5759 32 57.4719 32.128H57.8559C58.4959 32.128 59.1359 31.616 59.3919 30.976C60.4159 27.392 61.1839 23.296 61.4399 19.456V19.328C62.5919 17.792 63.1039 16.256 63.1039 14.72C63.1039 11.264 60.5439 8.06395 55.9359 5.88795C51.0719 3.58396 44.2879 2.30396 36.2239 2.30396C28.1599 2.30396 21.3759 3.58396 16.5119 5.88795C11.9039 8.19195 9.34391 11.264 9.34391 14.72C9.34391 16.384 9.98391 17.92 11.1359 19.456H11.0079C8.44791 18.944 2.30391 17.792 0.767906 24.32C-0.896094 31.36 7.80791 38.912 15.8719 43.264C12.2879 45.312 10.2399 47.744 10.2399 50.432C10.2399 57.728 23.8079 61.568 36.4799 61.568C49.2799 61.568 62.7199 57.6 62.7199 50.432C62.8479 46.976 59.3919 43.904 53.2479 41.728ZM36.4799 5.50396C51.8399 5.50396 60.1599 10.24 60.1599 14.72C60.1599 16.896 58.2399 19.072 54.7839 20.736C51.7119 22.144 46.0799 23.936 36.4799 23.936C26.8799 23.936 21.2479 22.144 18.1759 20.736C14.7199 19.072 12.7999 16.896 12.7999 14.72C12.7999 10.24 20.9919 5.50396 36.4799 5.50396ZM49.0239 48.768C49.7919 49.408 50.1759 50.048 50.1759 50.688C50.1759 53.376 43.9039 55.552 36.6079 55.552C29.1839 55.552 22.9119 53.248 22.9119 50.688C22.9119 49.92 23.4239 49.152 24.4479 48.512C28.0319 51.456 32.1279 52.992 36.8639 52.992C41.3439 52.992 45.4399 51.584 49.0239 48.768ZM36.4799 58.496C23.2959 58.496 13.4399 54.272 13.4399 50.56C13.4399 48.768 15.8719 46.72 19.8399 45.184C20.4799 45.44 21.1199 45.696 21.6319 45.952L23.9359 48.256C22.9119 49.024 22.2719 49.92 22.2719 50.816C22.2719 53.888 28.5439 56.32 36.6079 56.32C44.5439 56.32 50.8159 53.888 50.8159 50.816C50.8159 50.048 50.4319 49.152 49.5359 48.512C50.6879 47.488 51.8399 46.336 52.8639 45.056C57.0879 46.592 59.6479 48.64 59.6479 50.56C59.6479 54.272 49.6639 58.496 36.4799 58.496Z" fill="#031326"/>
<path fill-rule="evenodd" clip-rule="evenodd" d="M36.8641 6.3999C25.2161 6.3999 15.7441 10.2399 15.7441 14.9759C15.7441 19.7119 25.2161 23.5519 36.8641 23.5519C48.5121 23.5519 57.9841 19.7119 57.9841 14.9759C57.9841 10.2399 48.6401 6.3999 36.8641 6.3999ZM55.8081 17.9199C56.1921 17.4079 56.4481 16.7679 56.4481 16.2559C56.4481 12.5439 47.7441 9.3439 36.9921 9.3439C26.2401 9.3439 17.5361 12.4159 17.5361 16.2559C17.5361 16.8959 17.7921 17.4079 18.1761 17.9199C17.1521 17.0239 16.5121 15.9999 16.5121 14.8479C16.5121 10.6239 25.8561 6.9119 36.9921 6.9119C48.1281 6.9119 57.4721 10.4959 57.4721 14.8479C57.4721 15.9999 56.8321 17.0239 55.8081 17.9199Z" fill="#031326"/>
</svg>
