<svg width="64" height="64" viewBox="0 0 64 64" fill="none" xmlns="http://www.w3.org/2000/svg">
<path d="M43.1486 16.6143C43.3022 13.9775 43.507 11.3279 43.1358 8.71671C41.3182 8.72951 40.3454 8.99831 38.5534 8.65271C38.259 8.58871 38.1054 7.88471 38.1054 7.59031C38.1054 6.63031 37.9006 6.07992 38.0798 5.13272C38.1054 5.01752 37.4654 4.76151 37.555 4.68471V3.53271L24.755 3.60951L2.30378 4.01911L1.81738 11.0719L1.94538 31.6031" fill="#BF94F7"/>
<path d="M62.1569 31.6159H44.7489C44.6515 31.7106 44.533 31.7808 44.4033 31.8207C44.3265 31.8335 44.2497 31.8463 44.1857 31.8463C44.0705 31.8463 43.9681 31.8207 43.8657 31.7695C43.7619 31.7345 43.6692 31.6726 43.5969 31.5903C43.5841 31.5775 43.5841 31.5775 43.5841 31.5647C42.9825 31.4111 42.8289 30.6815 43.1489 30.2463V16.4223C43.1233 16.9855 43.0849 12.4287 43.0721 12.9919L1.94566 28.0063V31.4239L1.22886 31.6927V42.5215C1.22886 45.9647 1.15206 49.3951 1.56166 52.8127C1.60006 53.1199 2.49606 55.5135 2.53446 55.8079L7.24486 55.9103C7.33446 55.9103 7.37286 55.7311 7.38566 55.4879C7.42406 55.6799 7.48806 55.7951 7.53926 55.8719C7.36006 57.0751 7.68006 57.4847 7.64166 57.5743L62.4513 37.5295C62.4641 36.2879 62.3233 32.8575 62.1569 31.6159ZM33.8945 32.0511C33.8446 31.9559 33.7689 31.8766 33.6761 31.8222C33.5833 31.7679 33.4771 31.7408 33.3697 31.7439C31.7697 31.7439 30.1697 31.9615 28.5697 32.0511C28.3009 31.8207 27.8785 31.7951 27.6609 32.0895C27.5841 32.0895 27.5073 32.1023 27.4305 32.1023C26.6625 32.1023 26.6241 33.2287 27.3025 33.3567C27.2385 33.5487 27.2897 33.7663 27.3921 33.9455C27.3665 34.8671 27.4305 35.7887 27.4945 36.7231C27.5073 38.1567 27.5329 39.5775 27.3409 40.9983C27.0977 42.7263 27.3281 44.1343 27.5073 45.9135C27.0465 45.9647 26.5857 46.0159 26.1121 46.0159C19.8273 46.0159 14.0545 41.4079 14.0545 35.1231C14.0545 28.8383 19.1489 23.7439 25.4337 23.7439C30.5281 23.7439 35.8401 27.1871 36.0705 31.6415C35.2769 31.6927 34.6881 31.8847 33.8945 32.0511Z" fill="#A475EF"/>
<path d="M61.5038 32.7551V53.1583H27.8014V32.7551H61.5038ZM61.5678 31.4751H27.7374C27.0718 31.4751 26.5342 32.0127 26.5342 32.6783V53.2223C26.5342 53.8879 27.0718 54.4255 27.7374 54.4255H61.5678C62.2334 54.4255 62.771 53.8879 62.771 53.2223V32.6911C62.7735 32.5318 62.7443 32.3736 62.6849 32.2257C62.6255 32.0779 62.5371 31.9434 62.4251 31.8301C62.313 31.7169 62.1794 31.6271 62.0322 31.5662C61.885 31.5052 61.7271 31.4742 61.5678 31.4751Z" fill="#444444"/>
<path d="M37.4017 35.9169C39.5009 35.9169 41.2161 37.2993 41.2161 39.0145V40.8833C41.2161 42.5857 39.5009 43.9809 37.4017 43.9809C35.3025 43.9809 33.5873 42.5985 33.5873 40.8833V39.0145C33.5873 37.2993 35.3025 35.9169 37.4017 35.9169ZM37.4017 35.2769C34.9441 35.2769 32.9473 36.9537 32.9473 39.0145V40.8833C32.9473 42.9441 34.9441 44.6209 37.4017 44.6209C39.8593 44.6209 41.8561 42.9441 41.8561 40.8833V39.0145C41.8561 36.9409 39.8593 35.2769 37.4017 35.2769Z" fill="#444444"/>
<path d="M31.3599 49.6V48.3968C31.3599 46.5152 34.0607 44.7744 37.4015 44.7744C40.7423 44.7744 43.4431 46.5152 43.4431 48.3968V49.6" stroke="#444444" stroke-width="0.5" stroke-miterlimit="10" stroke-linecap="round" stroke-linejoin="round"/>
<path d="M48.2817 37.5168H56.7425M48.2817 42.3552H56.7425M48.2817 47.1936H54.3233" stroke="#444444" stroke-width="0.75" stroke-miterlimit="10" stroke-linecap="round" stroke-linejoin="round"/>
<path d="M43.571 31.7568L43.443 10.048C43.443 9.20316 42.7646 8.51196 41.9326 8.51196H8.70376C7.87176 8.51196 7.19336 9.20316 7.19336 10.048V58.9312C7.19336 59.776 7.87176 60.4672 8.70376 60.4672H41.9326C42.7646 60.4672 43.443 59.776 43.443 58.9312V56.7424" stroke="#444444" stroke-miterlimit="10" stroke-linecap="round" stroke-linejoin="round"/>
<path d="M38.0926 8.51188L38.067 5.13268C38.067 4.28788 37.3886 3.59668 36.5566 3.59668H3.32778C2.49578 3.59668 1.81738 4.28788 1.81738 5.13268V54.0159C1.81738 54.8607 2.49578 55.5519 3.32778 55.5519H4.91498" stroke="#444444" stroke-miterlimit="10" stroke-linecap="round" stroke-linejoin="round"/>
<path d="M25.4593 45.6321C16.2177 45.6321 14.4385 39.5777 14.4385 34.8417C14.4385 31.9561 15.5848 29.1887 17.6252 27.1483C19.6656 25.108 22.4329 23.9617 25.3185 23.9617C29.8753 23.9617 34.8417 27.3025 35.5073 30.5025" stroke="#444444" stroke-width="0.75" stroke-miterlimit="10" stroke-linecap="round" stroke-linejoin="round"/>
<path d="M21.9137 45.2609C20.5825 43.8529 20.4929 37.0945 20.4929 34.8417C20.4929 28.8385 22.6561 23.9617 25.3313 23.9617C27.4305 23.9617 29.1457 25.8177 29.8881 30.5025M14.4385 34.8417H25.0113M19.2769 49.6001H24.7425" stroke="#444444" stroke-width="0.75" stroke-miterlimit="10" stroke-linecap="round" stroke-linejoin="round"/>
<path fill-rule="evenodd" clip-rule="evenodd" d="M33.3314 17.3695L29.8754 19.1487C29.7474 19.2127 29.6194 19.2767 29.4274 19.2767H29.4018C28.9794 19.2767 28.6466 18.8927 28.6466 18.4319C28.6466 18.0735 28.8258 17.7919 29.1586 17.6255L31.9746 16.2559L29.1458 14.8863C28.9911 14.8096 28.8611 14.6908 28.7705 14.5437C28.68 14.3966 28.6326 14.227 28.6338 14.0543C28.6338 13.5807 28.9794 13.2223 29.4402 13.2223H29.4658C29.581 13.2223 29.7218 13.2607 29.8626 13.3375L33.3186 15.1167C33.7794 15.3471 34.0226 15.7311 34.0226 16.1919V16.3071C34.0354 16.7679 33.7922 17.1391 33.3314 17.3695ZM27.853 12.2367L23.8466 21.3119C23.6674 21.7087 23.3858 21.7855 23.1682 21.7855C22.7586 21.7855 22.413 21.4271 22.413 21.0047C22.413 20.8895 22.4386 20.7615 22.4898 20.6335L26.4962 11.5583C26.6754 11.1615 26.957 11.0847 27.1746 11.0847C27.5842 11.0847 27.9298 11.4431 27.9298 11.8655C27.9426 11.9679 27.9042 12.0959 27.853 12.2367ZM21.837 18.4319C21.837 18.9055 21.4914 19.2639 21.0306 19.2639H21.005C20.8898 19.2639 20.749 19.2255 20.6082 19.1487L17.1522 17.3695C16.6914 17.1391 16.4482 16.7551 16.4482 16.2943V16.1791C16.4482 15.7183 16.6914 15.3471 17.1522 15.1039L20.6082 13.3247C20.7362 13.2607 20.8642 13.1967 21.0562 13.1967H21.0818C21.5042 13.1967 21.837 13.5807 21.837 14.0415C21.837 14.3999 21.6578 14.6815 21.325 14.8479L18.509 16.2175L21.3378 17.5871C21.645 17.7535 21.837 18.0607 21.837 18.4319Z" fill="#444444"/>
<path d="M19.2896 53.4785H24.7552" stroke="#444444" stroke-width="0.75" stroke-miterlimit="10" stroke-linecap="round" stroke-linejoin="round"/>
<path d="M21.4143 24.6912C21.4143 24.6912 16.6527 28.0832 19.2767 44.288M18.4959 26.6624C18.4959 26.6624 13.8367 33.216 17.8303 43.2512" stroke="#444444" stroke-width="0.25" stroke-miterlimit="10"/>
<path d="M29.4658 24.7041C29.4658 24.7041 31.245 25.9457 32.0258 30.5025M32.3842 26.6881C32.3842 26.6881 33.357 28.0577 34.0354 30.5153" stroke="#444444" stroke-width="0.25" stroke-miterlimit="10" stroke-linecap="round"/>
<path d="M24.7424 24.0513C24.7424 24.0513 20.8128 34.2913 23.7056 45.0049M26.048 24.3585C26.048 24.3585 26.9824 26.7777 27.5968 30.5025M25.3184 24.3585L25.4592 30.5025M15.1552 30.9633C15.1552 30.9633 23.8976 25.0881 35.5072 30.5025M14.5664 38.1569C14.5664 38.1569 18.88 40.8321 25.472 40.5377" stroke="#444444" stroke-width="0.25" stroke-miterlimit="10" stroke-linecap="round" stroke-linejoin="round"/>
<path d="M34.3682 39.1807C35.5842 39.1807 37.8114 37.7087 37.8114 37.7087L37.2738 39.1935C37.6962 39.1167 38.4002 38.5919 38.9378 38.1311C39.6546 38.8735 40.4098 38.9887 40.4098 38.9887" stroke="#444444" stroke-width="0.5" stroke-miterlimit="10" stroke-linecap="round" stroke-linejoin="round"/>
</svg>
