<svg width="64" height="64" viewBox="0 0 64 64" fill="none" xmlns="http://www.w3.org/2000/svg">
<g clip-path="url(#clip0_977_2)">
<path d="M61.952 28.16L6.65599 48.256C3.58399 43.52 1.79199 38.016 1.79199 32C1.79199 30.72 1.91999 29.568 2.04799 28.416C2.04799 28.16 2.17599 27.776 2.17599 27.52L51.968 9.34399C52.224 9.59999 52.48 9.72799 52.608 9.98399C57.6 14.72 61.056 20.992 61.952 28.16Z" fill="#AFE55D"/>
<path d="M52.6079 9.98392L2.04785 28.4159C2.04785 28.1599 2.17585 27.7759 2.17585 27.5199C4.35185 13.0559 16.8959 1.91992 31.9999 1.91992C39.6799 1.91992 46.5919 4.73592 51.9679 9.47192C52.0959 9.59992 52.3519 9.72792 52.6079 9.98392Z" fill="#C3FF68"/>
<path d="M31.9999 63.7441C21.1199 63.7441 11.1359 58.2401 5.24793 49.0241C1.91993 43.7761 0.12793 38.0161 0.12793 31.8721C0.12793 30.4641 0.25593 29.3121 0.38393 28.1601C0.38393 27.9041 0.38393 27.7761 0.51193 27.5201V27.2641C2.94393 11.9041 16.3839 0.256104 31.9999 0.256104C39.8079 0.256104 47.1039 2.9441 52.9919 8.1921L53.2479 8.4481L53.8879 9.0881C59.2639 14.0801 62.7199 20.8641 63.6159 28.1601C63.7439 29.3121 63.8719 30.7201 63.8719 32.1281C63.7439 49.5361 49.5359 63.7441 31.9999 63.7441ZM3.71193 27.6481C3.71193 27.7761 3.71193 28.0321 3.58393 28.2881V28.4161C3.45593 29.6961 3.32793 30.7201 3.32793 32.0001C3.32793 37.5041 4.86393 42.6241 7.93593 47.3601C13.1839 55.6801 22.1439 60.5441 31.9999 60.5441C47.7439 60.5441 60.5439 47.7441 60.5439 32.0001C60.5439 30.7201 60.4159 29.5681 60.2879 28.4161C59.5199 21.8881 56.3199 15.7441 51.4559 11.2641L51.1999 11.0081L50.8159 10.6241C45.5679 6.0161 39.0399 3.5841 31.9999 3.5841C18.0479 3.5841 5.88793 13.9521 3.71193 27.6481Z" fill="#444444"/>
<path d="M32 57.856C17.792 57.856 6.14404 46.208 6.14404 32C6.14404 17.792 17.792 6.14404 32 6.14404C46.208 6.14404 57.856 17.792 57.856 32C57.856 46.208 46.208 57.856 32 57.856ZM32 7.16804C18.304 7.16804 7.16804 18.304 7.16804 32C7.16804 45.696 18.304 56.832 32 56.832C45.696 56.832 56.832 45.696 56.832 32C56.832 18.304 45.696 7.16804 32 7.16804Z" fill="#444444"/>
<path d="M23.2961 35.9681C23.2961 38.5281 22.1441 38.7841 21.1201 38.7841C20.6081 38.7841 19.9681 38.6561 19.2001 38.5281L18.5601 38.4001V42.3681L18.9441 42.4961C19.5841 42.7521 20.4801 42.8801 21.3761 42.8801C23.4241 42.8801 25.0881 42.2401 26.1121 41.0881C27.1361 39.9361 27.7761 38.1441 27.7761 35.9681V20.7361H23.2961V35.9681ZM44.2881 33.7921C43.9041 33.0241 43.3921 32.3841 42.6241 31.7441C41.8561 31.1041 40.7041 30.5921 39.1681 29.9521C37.8881 29.4401 36.9921 29.0561 36.4801 28.6721C36.0961 28.4161 35.7121 28.0321 35.5841 27.7761C35.4561 27.5201 35.3281 27.1361 35.3281 26.7521C35.3281 26.1121 35.5841 25.7281 35.9681 25.3441C36.3521 24.9601 37.1201 24.8321 38.0161 24.8321C39.2961 24.8321 40.9601 25.2161 42.6241 25.9841L43.1361 26.2401L44.6721 22.4001L44.1601 22.1441C42.1121 21.2481 40.0641 20.8641 38.1441 20.8641C35.9681 20.8641 34.1761 21.3761 32.8961 22.4001C31.4881 23.5521 30.8481 24.9601 30.8481 26.8801C30.8481 28.4161 31.2321 29.6961 32.1281 30.7201C33.0241 31.7441 34.3041 32.6401 36.3521 33.5361C38.5281 34.4321 39.4241 34.9441 39.6801 35.3281C40.1921 35.7121 40.3201 36.2241 40.3201 36.8641C40.3201 37.5041 40.0641 38.0161 39.5521 38.4001C38.6561 39.1681 36.6081 39.1681 34.1761 38.6561C33.1521 38.4001 32.2561 38.1441 31.3601 37.6321L30.5921 37.1201V41.6001L30.9761 41.7281C32.5121 42.4961 34.5601 42.8801 36.8641 42.8801C39.2961 42.8801 41.2161 42.3681 42.6241 41.2161C44.0321 40.0641 44.8001 38.5281 44.8001 36.4801C44.8001 35.4561 44.6721 34.5601 44.2881 33.7921Z" fill="#444444"/>
</g>
<defs>
<clipPath id="clip0_977_2">
<rect width="64" height="64" fill="white"/>
</clipPath>
</defs>
</svg>
