<svg width="64" height="64" viewBox="0 0 64 64" fill="none" xmlns="http://www.w3.org/2000/svg">
<path d="M9.08797 48.5119L16.128 52.6079L57.728 37.5039V20.4799C57.728 18.4319 56.704 16.5119 54.912 15.6159L34.816 4.09588C33.024 3.07188 30.848 3.07188 29.184 4.09588L9.08797 15.6159C7.29597 16.6399 6.27197 18.5599 6.27197 20.4799V43.5199C6.27197 45.5679 7.29597 47.4879 9.08797 48.5119Z" fill="#00C8E2"/>
<path d="M45.8243 11.3921L35.4563 4.48006C33.7923 3.32806 31.6163 3.20006 29.8243 4.09606L9.08832 14.3361C7.16832 15.3601 6.01632 17.1521 5.88832 19.2001L5.63232 23.2961L45.8243 11.3921Z" fill="#00DFFC"/>
<path d="M55.5522 14.336L35.4562 2.81596C33.2802 1.53596 30.5922 1.53596 28.5442 2.81596L8.44819 14.336C6.27219 15.616 4.99219 17.92 4.99219 20.352V43.52C4.99219 45.952 6.27219 48.256 8.44819 49.536L28.5442 61.056C29.5682 61.696 30.8482 61.952 32.0002 61.952C33.1522 61.952 34.4322 61.696 35.4562 61.056L40.9602 57.856C41.6002 57.472 41.7282 56.704 41.4722 56.064C41.0882 55.424 40.3202 55.296 39.6802 55.552L34.1762 58.752C32.7682 59.52 31.1042 59.52 29.8242 58.752L9.72819 47.36C8.32019 46.592 7.55219 45.184 7.55219 43.52V20.48C7.55219 18.944 8.44819 17.408 9.72819 16.64L29.8242 5.11996C31.2322 4.35196 32.8962 4.35196 34.1762 5.11996L54.2722 16.64C55.6802 17.408 56.4482 18.816 56.4482 20.48V37.504C56.4482 38.272 57.0882 38.784 57.7282 38.784C58.3682 38.784 59.0082 38.144 59.0082 37.504V20.48C59.0082 17.92 57.7282 15.616 55.5522 14.336Z" fill="#494949"/>
<path d="M49.9204 19.9681L33.4084 10.4961C32.5124 9.98406 31.3604 9.98406 30.4644 10.4961L14.0804 19.9681C13.1844 20.4801 12.6724 21.5041 12.6724 22.5281V41.6001C12.6724 42.6241 13.1844 43.6481 14.0804 44.1601L30.5924 53.6321C31.1044 53.8881 31.4884 54.0161 32.0004 54.0161C32.5124 54.0161 33.0244 53.8881 33.4084 53.6321L49.9204 44.0321C50.8164 43.5201 51.3284 42.4961 51.3284 41.4721V22.5281C51.4564 21.5041 50.8164 20.4801 49.9204 19.9681ZM50.3044 41.4721C50.3044 42.1121 49.9204 42.7521 49.4084 43.1361L32.8964 52.6081C32.2564 52.9921 31.6164 52.9921 30.9764 52.6081L14.4644 43.1361C13.8244 42.7521 13.5684 42.1121 13.5684 41.4721V22.5281C13.5684 21.8881 13.9524 21.2481 14.4644 20.8641L22.9124 16.0001L24.7044 17.7921C24.1924 19.0721 24.4484 20.6081 25.4724 21.6321C25.8564 22.0161 26.2404 22.2721 26.6244 22.4001V35.0721C25.8564 35.3281 25.3444 35.8401 24.8324 36.6081C24.1924 37.7601 24.1924 39.1681 24.9604 40.3201C26.3684 42.4961 29.6964 42.4961 31.1044 40.0641C31.6164 39.1681 31.7444 38.1441 31.3604 37.2481C30.9764 36.2241 30.3364 35.5841 29.5684 35.2001V23.2961C29.5684 23.0401 29.8244 22.9121 30.0804 23.1681L34.4324 27.5201C33.7924 29.0561 34.3044 30.8481 35.8404 31.8721C36.9924 32.6401 38.4004 32.6401 39.5524 31.8721C41.6004 30.5921 41.7284 27.9041 40.1924 26.3681C39.1684 25.3441 37.7604 25.0881 36.4804 25.4721L31.3604 20.3521C31.7444 19.0721 31.4884 17.6641 30.4644 16.6401C29.4404 15.6161 28.0324 15.3601 26.7524 15.7441L25.4724 14.4641L30.8484 11.3921C31.1044 11.2641 31.4884 11.1361 31.7444 11.1361C32.0004 11.1361 32.3844 11.2641 32.6404 11.3921L49.1524 20.8641C49.7924 21.2481 50.0484 21.8881 50.0484 22.5281L50.3044 41.4721Z" fill="#494949"/>
</svg>
