<svg width="64" height="64" viewBox="0 0 64 64" fill="none" xmlns="http://www.w3.org/2000/svg">
<g clip-path="url(#clip0_977_14)">
<path d="M32 64C49.6731 64 64 49.6731 64 32C64 14.3269 49.6731 0 32 0C14.3269 0 0 14.3269 0 32C0 49.6731 14.3269 64 32 64Z" fill="#4EB7E6"/>
<path fill-rule="evenodd" clip-rule="evenodd" d="M13.1763 23.843H51.4508V48.3136H13.1763V23.843Z" fill="#F0FAFF"/>
<path fill-rule="evenodd" clip-rule="evenodd" d="M13.1763 23.8432H51.4508V15.0588H13.1763V23.8432Z" fill="#09ABF3"/>
<path d="M26.0391 32.9412L23.5293 35.451L26.0391 37.9608M38.5881 32.9412L41.0979 35.451L38.5881 37.9608M29.8038 40.4706L34.8234 30.4314" stroke="#242938" stroke-width="3" stroke-linecap="square"/>
<path d="M18.51 21.3333C19.3764 21.3333 20.0787 20.631 20.0787 19.7647C20.0787 18.8983 19.3764 18.196 18.51 18.196C17.6437 18.196 16.9414 18.8983 16.9414 19.7647C16.9414 20.631 17.6437 21.3333 18.51 21.3333Z" fill="#242938"/>
<path d="M22.9021 21.3333C23.7685 21.3333 24.4708 20.631 24.4708 19.7647C24.4708 18.8983 23.7685 18.196 22.9021 18.196C22.0358 18.196 21.3335 18.8983 21.3335 19.7647C21.3335 20.631 22.0358 21.3333 22.9021 21.3333Z" fill="#242938"/>
<path d="M13.4902 24.1569H51.1373M13.4902 15.3726H51.1373V48H13.4902V15.3726Z" stroke="#242938" stroke-width="3" stroke-linecap="square"/>
</g>
<defs>
<clipPath id="clip0_977_14">
<rect width="64" height="64" fill="white"/>
</clipPath>
</defs>
</svg>
