<svg width="64" height="64" viewBox="0 0 64 64" fill="none" xmlns="http://www.w3.org/2000/svg">
<path d="M62.0799 30.3361L62.4639 36.7361L1.91992 58.6241L2.30392 46.5921L2.68792 39.8081L62.3359 18.0481L62.7199 22.0161L62.0799 30.3361Z" fill="#FCC34F"/>
<path d="M61.6961 3.71196L61.9521 18.944L2.43213 40.576V27.52L2.94413 21.632L58.3681 2.30396L61.6961 3.71196Z" fill="#FDCF72"/>
<path d="M7.16813 61.824H1.53613V2.17603H61.5681V61.824H40.8321" stroke="#444444" stroke-width="2.5" stroke-linecap="round" stroke-linejoin="round"/>
<path d="M45.0561 23.168C45.0561 22.784 44.9281 22.656 44.8001 21.888C44.4161 21.12 44.2881 20.736 43.9041 20.224C43.2641 19.328 42.3681 18.56 41.3441 18.048L39.0401 16.896C38.1441 16.512 37.1201 16 36.2241 15.616C35.8401 15.36 35.4561 15.104 35.2001 14.72C35.0721 14.464 34.9441 14.08 34.9441 13.696C34.9441 13.184 35.0721 12.544 35.5841 12.288C36.2241 11.776 36.9921 11.648 37.7601 11.648C39.4241 11.776 41.0881 12.16 42.6241 12.8L43.2641 13.056L44.8001 9.216L44.4161 8.96C42.3681 8.064 40.3201 7.68 38.1441 7.68C36.2241 7.68 34.3041 8.192 32.6401 9.472C31.2321 10.624 30.3361 12.288 30.4641 14.208C30.4641 15.744 30.8481 17.152 31.7441 18.304C33.0241 19.584 34.4321 20.48 36.0961 21.12C37.3761 21.504 38.6561 22.272 39.6801 23.168C40.1921 23.552 40.4481 24.064 40.4481 24.704V25.088C40.3201 25.6 40.0641 26.112 39.6801 26.368C38.7841 26.88 37.8881 27.008 36.9921 27.136C36.2241 27.136 35.5841 27.136 34.8161 27.008C34.5601 27.008 34.3041 26.88 34.0481 26.88C33.5361 26.752 33.0241 26.624 32.5121 26.368C31.6161 26.112 30.8481 25.6 30.0801 24.96V29.44L30.3361 29.568C32.2561 30.336 34.3041 30.72 36.4801 30.848C38.6561 30.976 40.7041 30.208 42.4961 28.928C44.0321 27.776 45.1841 25.984 45.0561 24.064V23.168ZM22.5281 7.552V23.552C22.5281 26.24 21.3761 26.496 20.3521 26.496C19.7121 26.496 18.9441 26.368 18.3041 26.24L17.5361 25.984V30.08L17.9201 30.208C18.8161 30.464 19.7121 30.72 20.6081 30.592C22.5281 30.72 24.3201 30.08 25.6001 28.672C26.8801 27.136 27.5201 25.216 27.3921 23.168V7.552H22.5281Z" fill="#444444"/>
<path d="M21.8881 40.704C23.302 40.704 24.4481 39.5578 24.4481 38.144C24.4481 36.7301 23.302 35.584 21.8881 35.584C20.4743 35.584 19.3281 36.7301 19.3281 38.144C19.3281 39.5578 20.4743 40.704 21.8881 40.704Z" stroke="#444444" stroke-linejoin="round"/>
<path d="M27.264 49.6639C28.5364 49.6639 29.568 48.6324 29.568 47.3599C29.568 46.0874 28.5364 45.0559 27.264 45.0559C25.9915 45.0559 24.96 46.0874 24.96 47.3599C24.96 48.6324 25.9915 49.6639 27.264 49.6639Z" stroke="#444444" stroke-linejoin="round"/>
<path d="M25.6001 47.488H18.5601" stroke="#444444" stroke-linejoin="round"/>
<path d="M16.2561 49.6639C17.5286 49.6639 18.5601 48.6324 18.5601 47.3599C18.5601 46.0874 17.5286 45.0559 16.2561 45.0559C14.9837 45.0559 13.9521 46.0874 13.9521 47.3599C13.9521 48.6324 14.9837 49.6639 16.2561 49.6639Z" stroke="#444444" stroke-linejoin="round"/>
<path d="M24.5762 38.0161H38.6562" stroke="#444444" stroke-linejoin="round"/>
<path d="M40.704 40.704C42.1179 40.704 43.264 39.5578 43.264 38.144C43.264 36.7301 42.1179 35.584 40.704 35.584C39.2902 35.584 38.144 36.7301 38.144 38.144C38.144 39.5578 39.2902 40.704 40.704 40.704Z" stroke="#444444" stroke-linejoin="round"/>
<path d="M46.3362 49.7921C47.6087 49.7921 48.6402 48.7605 48.6402 47.4881C48.6402 46.2156 47.6087 45.1841 46.3362 45.1841C45.0638 45.1841 44.0322 46.2156 44.0322 47.4881C44.0322 48.7605 45.0638 49.7921 46.3362 49.7921Z" stroke="#444444" stroke-linejoin="round"/>
<path d="M44.5438 47.616H37.6318" stroke="#444444" stroke-linejoin="round"/>
<path d="M35.2 49.7921C36.4725 49.7921 37.504 48.7605 37.504 47.4881C37.504 46.2156 36.4725 45.1841 35.2 45.1841C33.9275 45.1841 32.896 46.2156 32.896 47.4881C32.896 48.7605 33.9275 49.7921 35.2 49.7921Z" stroke="#444444" stroke-linejoin="round"/>
<path d="M46.336 57.088C47.3964 57.088 48.256 56.2284 48.256 55.168C48.256 54.1077 47.3964 53.248 46.336 53.248C45.2756 53.248 44.416 54.1077 44.416 55.168C44.416 56.2284 45.2756 57.088 46.336 57.088Z" stroke="#444444" stroke-linejoin="round"/>
<path d="M30.8481 37.76V26.752" stroke="#444444" stroke-linejoin="round"/>
</svg>
