<svg width="64" height="64" viewBox="0 0 64 64" fill="none" xmlns="http://www.w3.org/2000/svg">
<g clip-path="url(#clip0_908_534)">
<path d="M32 64C49.6731 64 64 49.6731 64 32C64 14.3269 49.6731 0 32 0C14.3269 0 0 14.3269 0 32C0 49.6731 14.3269 64 32 64Z" fill="#D9E4F0"/>
<path d="M14.5897 25.9502H22.0597V50.0002H14.5897V25.9502ZM18.3297 22.6702C17.4705 22.6741 16.6295 22.423 15.9131 21.9485C15.1968 21.474 14.6374 20.7976 14.3059 20.0049C13.9743 19.2123 13.8855 18.339 14.0507 17.4958C14.2159 16.6526 14.6277 15.8775 15.2338 15.2685C15.84 14.6595 16.6132 14.2442 17.4557 14.0751C18.2981 13.906 19.1717 13.9908 19.9659 14.3187C20.7601 14.6466 21.4391 15.2028 21.9169 15.9169C22.3947 16.6311 22.6497 17.471 22.6497 18.3302C22.6497 19.4778 22.1952 20.5786 21.3857 21.392C20.5761 22.2053 19.4773 22.6649 18.3297 22.6702ZM49.9997 50.0002H42.5397V38.3102C42.5397 35.5202 42.5397 31.9302 38.6597 31.9302C34.7797 31.9302 34.1897 34.9302 34.1897 38.1102V50.0002H26.7397V26.0002H33.8897V29.2902H33.9997C34.7153 28.0652 35.75 27.0573 36.9933 26.374C38.2366 25.6907 39.642 25.3576 41.0597 25.4102C48.6097 25.4102 50.0597 30.4102 50.0597 36.8602L49.9997 50.0002Z" fill="#216FF4"/>
</g>
<defs>
<clipPath id="clip0_908_534">
<rect width="64" height="64" fill="white"/>
</clipPath>
</defs>
</svg>
