<svg width="97" height="47" viewBox="0 0 97 47" fill="none" xmlns="http://www.w3.org/2000/svg">
<path d="M85.6836 30.1983C85.6836 29.9467 85.877 29.7482 86.1219 29.7482H95.611C95.8559 29.7482 96.0493 29.9467 96.0493 30.1983V32.7665C96.0493 33.0181 95.8559 33.2167 95.611 33.2167H89.2549V36.1424H94.4893C94.7214 36.1556 94.9147 36.3409 94.9276 36.5925V39.1607C94.9276 39.4123 94.7342 39.6108 94.4893 39.6108H89.2549V42.7881H95.611C95.8559 42.7881 96.0493 42.9867 96.0493 43.2382V45.8065C96.0493 46.058 95.8559 46.2566 95.611 46.2566H86.1219C85.877 46.2566 85.6836 46.058 85.6836 45.8065V30.1983Z" fill="#2070F5"/>
<path d="M49.3142 7.52054C48.3989 6.77919 47.058 6.38203 45.1757 6.38203C44.3248 6.3688 43.461 6.44823 42.6229 6.62033C42.017 6.79243 41.4368 7.07044 40.934 7.45435C40.5085 7.78531 40.1733 8.23542 39.967 8.73848C39.7737 9.22831 39.6705 9.74461 39.6834 10.2741V10.8169C39.6318 10.9625 39.735 11.0685 39.8768 11.0685H42.1846C42.2877 11.0552 42.3651 10.9758 42.378 10.8699C42.4167 10.3403 42.6229 9.83728 42.9581 9.44012C43.3449 8.99002 44.0669 8.75172 45.1241 8.75172C45.5754 8.73848 46.0395 8.80468 46.465 8.9503C46.7615 9.06945 47.0451 9.22831 47.2772 9.44012C47.6253 9.79756 47.8316 10.2741 47.8574 10.7772V11.4656C47.8574 11.7039 47.8058 11.9422 47.7155 12.154C47.6382 12.3394 47.5222 12.5115 47.3803 12.6438C47.2772 12.7895 47.1483 12.8954 46.9936 12.988C46.8904 13.0675 46.7744 13.1337 46.6583 13.1866C46.6068 13.2396 46.4134 13.2925 46.0266 13.4381C45.6398 13.5838 45.3046 13.7294 44.8276 13.8883C44.3506 14.0471 43.8606 14.1795 43.3836 14.3781C42.9066 14.5767 42.4682 14.6693 42.0814 14.8282C41.3208 15.0797 40.689 15.6093 40.3023 16.3109C39.9026 16.9861 39.6834 17.7539 39.6834 18.535V20.0706C39.7092 20.5075 39.7994 20.9444 39.9284 21.3548C40.0831 21.8578 40.3667 22.2947 40.7406 22.6389C41.2047 23.1022 41.7591 23.4332 42.378 23.6318C43.2676 23.9098 44.1958 24.0422 45.1241 24.0289C46.0524 24.0686 46.9807 23.9363 47.8703 23.6318C48.4891 23.4332 49.0693 23.089 49.5463 22.6389C49.9331 22.2947 50.2167 21.8578 50.3714 21.3548C50.5261 20.9444 50.6035 20.5075 50.6164 20.0706V10.3933C50.6164 9.26802 50.1394 8.22218 49.3142 7.52054ZM47.2901 20.9046C46.9033 21.3018 46.1297 21.5401 45.1241 21.5401C44.1185 21.5401 43.3965 21.3415 43.0097 20.9444C42.5843 20.4148 42.378 19.7529 42.4295 19.0645C42.4295 18.7203 42.4811 18.3231 42.6745 18.0319C42.8292 17.7804 42.9968 17.5421 43.2031 17.3435C43.3965 17.1979 43.6801 17.0523 43.9251 16.8934C44.2087 16.7478 44.6471 16.6419 44.9823 16.4962C45.3175 16.3374 45.6785 16.205 46.0395 16.0991C46.4263 16.0064 46.7615 15.8475 47.0967 15.7549C47.2643 15.7019 47.4319 15.6225 47.5737 15.5033C47.7542 15.3974 47.8703 15.2121 47.9089 15.0135L47.8574 19.0645C47.9089 19.7264 47.7027 20.3883 47.2901 20.9046Z" fill="#2070F5"/>
<path d="M37.0021 6.38203H38.5363C38.6395 6.39526 38.7168 6.4747 38.7297 6.5806V6.62032L38.2011 8.69876C38.2011 8.80467 38.1109 8.84438 38.0077 8.84438H36.9505C36.4735 8.83115 35.9965 8.91058 35.5581 9.09592C35.2487 9.21506 34.9651 9.4004 34.7459 9.63869C34.5783 9.82403 34.4365 10.0358 34.3591 10.2741C34.3075 10.486 34.2689 10.6978 34.256 10.9096V23.7509C34.2689 23.8833 34.1657 23.9892 34.0497 24.0025C34.0368 24.0025 34.0368 24.0025 34.0239 24.0025H31.7161C31.6001 23.9892 31.5098 23.8833 31.5227 23.7509V10.38C31.5227 10.0358 31.5743 9.67841 31.6645 9.34745C31.7548 8.84438 31.9997 8.38104 32.335 8.01036C32.7991 7.52054 33.3535 7.12338 33.9723 6.87185C34.9264 6.48793 35.9707 6.31583 37.0021 6.38203Z" fill="#2070F5"/>
<path d="M29.163 19.4089V20.0046C29.163 20.3753 29.1114 20.7327 29.0212 21.0902C28.918 21.5932 28.686 22.0433 28.3508 22.4272C27.8866 22.9171 27.3322 23.3142 26.7134 23.5658C25.7464 23.9232 24.715 24.0953 23.6836 24.0556C22.6522 24.0821 21.6208 23.9232 20.6538 23.5658C20.035 23.3275 19.4677 22.9303 19.0165 22.4272C18.6812 22.0566 18.4492 21.5932 18.346 21.0902C18.2429 20.746 18.2429 20.4018 18.2042 20.0576V6.58078C18.1913 6.44839 18.2945 6.34248 18.4105 6.32924C18.4234 6.32924 18.4234 6.32924 18.4363 6.32924H20.6925C20.8214 6.31601 20.9246 6.42191 20.9375 6.5543C20.9375 6.56754 20.9375 6.56754 20.9375 6.58078V19.1309C20.9504 19.4486 20.9761 19.7531 21.0406 20.0708C21.118 20.3223 21.2598 20.5606 21.4274 20.7592C21.6466 21.0107 21.9302 21.1961 22.2396 21.302C22.7038 21.4608 23.1937 21.5403 23.6836 21.5535C24.1864 21.5667 24.7021 21.4873 25.1792 21.302C25.4886 21.2093 25.7722 21.0372 25.9914 20.8121C26.1848 20.64 26.3137 20.415 26.3782 20.1635C26.4813 19.8457 26.52 19.5148 26.52 19.1706V6.58078C26.5071 6.46163 26.5973 6.34248 26.7134 6.32924H29.0212C29.1501 6.31601 29.2532 6.42191 29.2661 6.5543C29.2661 6.56754 29.2661 6.56754 29.2661 6.58078L29.163 19.4089Z" fill="#2070F5"/>
<path d="M13.4339 0.00112208H15.6901C15.8191 -0.0121164 15.9222 0.0937913 15.9351 0.212938C15.9351 0.226176 15.9351 0.239415 15.9351 0.239415V23.8039C15.948 23.9363 15.8449 24.0422 15.7159 24.0555C15.703 24.0555 15.703 24.0555 15.6901 24.0555H13.4339C13.305 24.0687 13.2019 23.9628 13.189 23.8304C13.189 23.8172 13.189 23.8172 13.189 23.8039V0.239415C13.2405 0.0937914 13.3308 0.00112208 13.4339 0.00112208Z" fill="#2070F5"/>
<path d="M0.0131836 30.1983C0.0260763 29.96 0.206573 29.7614 0.451534 29.7482H3.19767C3.42974 29.7614 3.62313 29.9467 3.63602 30.1983V45.7932C3.62313 46.0315 3.44263 46.2301 3.19767 46.2433H0.451534C0.219466 46.2301 0.0260763 46.0447 0.0131836 45.7932V30.1983Z" fill="#2070F5"/>
<path d="M7.55566 29.9467C7.56856 29.7084 7.76195 29.5231 7.99402 29.5231H8.56129L17.7151 38.565H17.7409V30.1982C17.7409 29.9467 17.9343 29.7481 18.1792 29.7481H20.9254C21.1574 29.7614 21.3508 29.9467 21.3637 30.1982V46.0447C21.3508 46.283 21.1574 46.4683 20.9254 46.4683H20.5644C20.4612 46.4551 20.3581 46.4154 20.2678 46.3492L11.2043 37.0028H11.1785V45.7932C11.1785 46.0447 10.9851 46.2433 10.7402 46.2433H8.0198C7.78773 46.23 7.59434 46.0447 7.58145 45.7932L7.55566 29.9467Z" fill="#2070F5"/>
<path d="M32.4258 29.5231C34.7207 29.5231 36.4226 30.2512 37.9697 31.7074C38.1502 31.853 38.176 32.1311 38.0341 32.3296C38.0212 32.3429 38.0084 32.3561 37.9955 32.3693L36.2034 34.2889C36.0487 34.4478 35.7908 34.4478 35.6361 34.2889C34.7852 33.5211 33.6764 33.0842 32.5419 33.0842C29.9504 33.0842 28.0423 35.2951 28.0423 37.9295C28.0423 40.5507 29.9762 42.7086 32.5547 42.7086C33.6764 42.7086 34.7594 42.3115 35.6232 41.5833C35.8037 41.4377 36.0487 41.4509 36.2163 41.6098L38.0084 43.5559C38.1631 43.7412 38.1502 44.0192 37.9826 44.1913C36.487 45.674 34.4887 46.4948 32.4129 46.4816C27.8489 46.4816 24.1616 42.6821 24.1616 38.0089C24.1616 33.3358 27.8618 29.5231 32.4258 29.5231Z" fill="#2070F5"/>
<path d="M40.7412 30.1983C40.7412 29.9467 40.9346 29.7482 41.1796 29.7482H43.9128C44.1449 29.7614 44.3383 29.9467 44.3512 30.1983V42.7748H49.8048C50.0497 42.7748 50.2431 42.9734 50.2431 43.2249V45.7932C50.2431 46.0447 50.0497 46.2433 49.8048 46.2433H41.1796C40.9346 46.2433 40.7412 46.0447 40.7412 45.7932V30.1983Z" fill="#2070F5"/>
<path d="M52.0474 30.1983C52.0603 29.96 52.2408 29.7614 52.4857 29.7482H55.3092C55.5542 29.7482 55.7476 29.9467 55.7476 30.1983V39.73C55.7476 41.3848 56.9337 42.6954 58.5711 42.6954C60.2213 42.6954 61.4332 41.3716 61.4332 39.73V30.1983C61.4332 29.9467 61.6266 29.7482 61.8716 29.7482H64.6951C64.9271 29.7614 65.1205 29.9467 65.1334 30.1983V39.9286C65.1334 43.503 62.1939 46.4816 58.5711 46.4816C54.974 46.4816 52.0603 43.5162 52.0603 39.9286L52.0474 30.1983Z" fill="#2070F5"/>
<path d="M68.833 30.4501C68.833 30.2118 69.0135 30.0132 69.2456 30H74.841C79.2632 30 82.886 33.6935 82.886 38.2211C82.886 42.7884 79.2761 46.4819 74.841 46.4819H69.2456C69.0135 46.4687 68.833 46.2701 68.833 46.0318V30.4501ZM74.6089 43.0134C77.2004 43.0134 79.0827 40.9217 79.0827 38.2343C79.0827 35.5734 77.2004 33.4817 74.6089 33.4817H72.4043V43.0134H74.6089Z" fill="#2070F5"/>
<path d="M9.63083 7.52054C8.71545 6.77919 7.37461 6.38203 5.49228 6.38203C4.64136 6.3688 3.77755 6.44823 2.93953 6.62033C2.32068 6.76595 1.7534 7.0572 1.26348 7.45435C0.838024 7.78531 0.502814 8.23542 0.296531 8.73848C0.103141 9.22831 0.012893 9.74461 0.012893 10.2741V10.8699C2.94898e-07 11.0023 0.103141 11.1082 0.219176 11.1214C0.232068 11.1214 0.232068 11.1214 0.244961 11.1214H2.50118C2.60432 11.1082 2.68168 11.0287 2.69457 10.9228C2.73325 10.3933 2.93953 9.89023 3.27474 9.49308C3.66152 9.04297 4.38351 8.80468 5.44071 8.80468C5.89195 8.75172 6.35609 8.80468 6.79444 8.9503C7.09097 9.06945 7.37461 9.22831 7.60668 9.44013C7.95478 9.78433 8.16106 10.2741 8.18685 10.7772V11.4656C8.18685 11.7039 8.13528 11.9422 8.04503 12.154C7.96767 12.3394 7.85164 12.5115 7.70982 12.6438C7.60668 12.7895 7.47775 12.8954 7.32304 12.988C7.2199 13.0675 7.10386 13.1337 6.98783 13.1866C6.93626 13.2396 6.74287 13.2925 6.36898 13.4381C5.99509 13.5838 5.64699 13.7294 5.16996 13.8883C4.69293 14.0471 4.2159 14.1795 3.72598 14.3781C3.23606 14.5767 2.79771 14.6693 2.41093 14.8282C1.66315 15.0797 1.01852 15.6093 0.631741 16.3109C0.232068 16.9861 0.0128927 17.7539 0 18.535V20.0574C0.0257853 20.4943 0.116034 20.9311 0.244961 21.3415C0.399673 21.8446 0.683312 22.2815 1.0572 22.6257C1.52134 23.089 2.07572 23.42 2.69457 23.6185C3.58416 23.8966 4.51244 24.0289 5.44071 24.0157C6.36898 24.0554 7.29725 23.923 8.18685 23.6185C8.8057 23.42 9.38587 23.0758 9.87579 22.6257C10.2626 22.2815 10.5462 21.8446 10.688 21.3415C10.8427 20.9311 10.9201 20.4943 10.933 20.0574V10.3801C10.933 9.26802 10.456 8.22218 9.63083 7.52054ZM7.65825 20.9047C7.27147 21.3018 6.54948 21.5401 5.49228 21.5401C4.43508 21.5401 3.71309 21.3415 3.32631 20.9444C2.90085 20.4148 2.69457 19.7529 2.74614 19.0645C2.74614 18.7071 2.83639 18.3496 2.97821 18.0319C3.13292 17.7804 3.30052 17.5553 3.50681 17.3435C3.7002 17.1979 3.98384 17.0523 4.2288 16.8934C4.51244 16.7478 4.95079 16.6419 5.286 16.4962C5.62121 16.3374 5.9822 16.205 6.3432 16.0991C6.72998 16.0064 7.06519 15.8476 7.40039 15.7549C7.568 15.7019 7.7356 15.6225 7.87742 15.5034C8.05792 15.3974 8.17395 15.2121 8.21263 15.0135V19.0645C8.30288 19.7397 8.08371 20.4016 7.65825 20.9047Z" fill="#2070F5"/>
</svg>
