<svg width="139" height="35" viewBox="0 0 139 35" fill="none" xmlns="http://www.w3.org/2000/svg">
<g clip-path="url(#clip0_908_526)">
<path d="M19.287 0H22.593C22.6749 0.000528205 22.7532 0.0334219 22.8109 0.091501C22.8686 0.14958 22.901 0.228128 22.901 0.31V33.63C22.901 33.7119 22.8686 33.7904 22.8109 33.8485C22.7532 33.9066 22.6749 33.9395 22.593 33.94H19.287C19.2052 33.9395 19.1268 33.9066 19.0691 33.8485C19.0114 33.7904 18.979 33.7119 18.979 33.63V0.34C18.973 0.255937 19.0005 0.172908 19.0557 0.109156C19.1108 0.0454036 19.189 0.00614306 19.273 0L19.287 0ZM41.97 27.436V28.27C41.9563 28.785 41.8849 29.2969 41.757 29.796C41.6034 30.4969 41.261 31.1425 40.767 31.663C40.244 32.286 39.473 32.815 38.392 33.281C37.312 33.746 35.892 33.965 34.04 33.965C32.188 33.965 30.734 33.749 29.688 33.281C28.7902 32.9169 27.9805 32.3652 27.313 31.663C26.8244 31.1275 26.4841 30.4735 26.326 29.766C26.212 29.2753 26.1397 28.7759 26.11 28.273V9.302C26.1096 9.26121 26.1173 9.22074 26.1326 9.18291C26.1479 9.14508 26.1704 9.11064 26.1991 9.08156C26.2277 9.05248 26.2617 9.02934 26.2993 9.01346C26.3369 8.99757 26.3772 8.98926 26.418 8.989H29.724C29.7648 8.98926 29.8052 8.99757 29.8427 9.01346C29.8803 9.02934 29.9144 9.05248 29.943 9.08156C29.9716 9.11064 29.9942 9.14508 30.0095 9.18291C30.0248 9.22074 30.0324 9.26121 30.032 9.302V27.062C30.0268 27.5148 30.0895 27.9658 30.218 28.4C30.313 28.753 30.481 29.08 30.711 29.364C31.019 29.71 31.413 29.968 31.853 30.112C32.5041 30.3492 33.1959 30.4546 33.888 30.422C34.61 30.4379 35.3296 30.3332 36.017 30.112C36.456 29.962 36.856 29.717 37.189 29.394C37.453 29.139 37.644 28.817 37.744 28.464C37.9 28.003 37.974 27.518 37.96 27.032V9.302C37.9596 9.26121 37.9673 9.22074 37.9826 9.18291C37.9978 9.14508 38.0204 9.11064 38.0491 9.08156C38.0777 9.05248 38.1117 9.02934 38.1493 9.01346C38.1869 8.99757 38.2272 8.98926 38.268 8.989H41.574C41.6148 8.98926 41.6552 8.99757 41.6927 9.01346C41.7303 9.02934 41.7644 9.05248 41.793 9.08156C41.8216 9.11064 41.8442 9.14508 41.8595 9.18291C41.8748 9.22074 41.8824 9.26121 41.882 9.302L41.973 27.436H41.97ZM53.203 8.988H55.426C55.4715 8.98744 55.5164 8.99769 55.5571 9.01788C55.5978 9.03808 55.6331 9.06765 55.6602 9.10416C55.6872 9.14068 55.7052 9.18309 55.7127 9.22792C55.7201 9.27275 55.7168 9.3187 55.703 9.362L54.968 12.247C54.9531 12.3098 54.9172 12.3657 54.8664 12.4055C54.8155 12.4453 54.7526 12.4666 54.688 12.466H53.148C52.4624 12.443 51.7792 12.5597 51.14 12.809C50.6949 12.9742 50.2939 13.2397 49.968 13.585C49.7208 13.8572 49.5395 14.1826 49.438 14.536C49.3547 14.84 49.313 15.1538 49.314 15.469V33.607C49.314 33.6889 49.2816 33.7674 49.2239 33.8255C49.1662 33.8836 49.0879 33.9165 49.006 33.917H45.674C45.5918 33.917 45.513 33.8843 45.4548 33.8262C45.3967 33.7681 45.364 33.6892 45.364 33.607V14.68C45.3806 14.1759 45.4531 13.6752 45.58 13.187C45.736 12.477 46.08 11.821 46.574 11.289C47.101 10.669 47.872 10.139 48.952 9.671C49.902 9.237 51.382 8.987 53.204 8.987L53.203 8.988ZM7.83903 8.988C10.525 8.988 12.499 9.518 13.796 10.576C14.3872 11.0639 14.8627 11.677 15.1881 12.3709C15.5136 13.0649 15.6809 13.8225 15.678 14.589V28.245C15.6553 28.8679 15.5511 29.4852 15.368 30.081C15.1449 30.7769 14.7533 31.4069 14.228 31.915C13.5291 32.5418 12.7093 33.0189 11.819 33.317C10.802 33.687 9.47403 33.877 7.86903 33.877C6.53082 33.904 5.19701 33.7149 3.91903 33.317C3.02465 33.0308 2.20376 32.5523 1.51403 31.915C0.957061 31.4329 0.55896 30.7935 0.372032 30.081C0.174326 29.4887 0.0697478 28.8694 0.0620319 28.245V26.068C0.0587793 24.9375 0.368553 23.8282 0.957032 22.863C1.5441 21.9139 2.44319 21.1986 3.50003 20.84C4.05403 20.62 4.64203 20.465 5.38203 20.186C6.06103 19.932 6.77003 19.721 7.41703 19.471C8.06303 19.221 8.62003 19.036 9.14603 18.848C9.67203 18.66 9.94703 18.568 10.072 18.508C10.197 18.447 10.349 18.352 10.535 18.253C10.745 18.116 10.94 17.961 11.12 17.788C11.31 17.578 11.462 17.338 11.573 17.078C11.728 16.77 11.803 16.428 11.789 16.084V15.209C11.788 14.8758 11.7142 14.5468 11.573 14.245C11.4368 13.8947 11.2134 13.5849 10.924 13.345C10.5699 13.0423 10.1617 12.8092 9.72103 12.658C9.10365 12.4612 8.4564 12.3749 7.80903 12.403C6.26503 12.403 5.27803 12.713 4.69003 13.367C4.21085 13.9414 3.92992 14.6551 3.88903 15.402C3.88774 15.4394 3.87908 15.4762 3.86356 15.5103C3.84803 15.5444 3.82593 15.5751 3.79854 15.6006C3.77114 15.6262 3.73897 15.6461 3.70388 15.6592C3.66879 15.6723 3.63146 15.6783 3.59403 15.677H0.308032C0.226162 15.6765 0.147825 15.6436 0.0901206 15.5855C0.0324162 15.5274 3.02335e-05 15.4489 3.19374e-05 15.367V14.558C-0.00249308 13.8097 0.14473 13.0685 0.433032 12.378C0.744245 11.6657 1.23278 11.0449 1.85203 10.575C2.57443 10.017 3.40451 9.61454 4.29003 9.393C5.45426 9.12823 6.64409 8.99241 7.83803 8.988H7.83903ZM11.789 21.276C11.766 21.4167 11.7126 21.5508 11.6327 21.6689C11.5527 21.787 11.4481 21.8863 11.326 21.96C11.116 22.106 10.888 22.221 10.646 22.303C10.184 22.489 9.66003 22.644 9.13603 22.833C8.61203 23.021 8.08603 23.207 7.62303 23.362C7.06803 23.578 6.51103 23.736 6.07903 23.922C5.69903 24.104 5.33803 24.323 5.00003 24.575C4.69803 24.85 4.44603 25.175 4.25803 25.539C4.02303 25.989 3.90803 26.491 3.91903 26.999C3.91903 28.149 4.19803 29.019 4.75403 29.611C5.30803 30.171 6.32503 30.483 7.83903 30.483C9.35203 30.483 10.399 30.171 10.988 29.58C11.575 28.99 11.819 28.118 11.819 27.037L11.789 21.281V21.276ZM65.054 8.988C67.74 8.988 69.714 9.518 71.01 10.576C71.6012 11.0639 72.0767 11.677 72.4021 12.3709C72.7276 13.0649 72.8949 13.8225 72.892 14.589V28.245C72.8703 28.8679 72.7667 29.4851 72.584 30.081C72.359 30.7765 71.9669 31.4062 71.442 31.915C70.7437 32.541 69.925 33.0181 69.036 33.317C68.019 33.687 66.689 33.877 65.084 33.877C63.7458 33.9038 62.412 33.7147 61.134 33.317C60.2393 33.0309 59.418 32.5524 58.728 31.915C58.172 31.4321 57.7741 30.7931 57.586 30.081C57.389 29.4886 57.2851 28.8693 57.278 28.245V26.068C57.2739 24.9374 57.5837 23.8279 58.173 22.863C58.7563 21.9167 59.6497 21.2021 60.701 20.841C61.258 20.621 61.843 20.466 62.586 20.187C63.265 19.933 63.975 19.722 64.621 19.472C65.267 19.222 65.826 19.037 66.351 18.849C66.874 18.661 67.151 18.569 67.276 18.509C67.401 18.448 67.554 18.353 67.739 18.254C67.949 18.119 68.145 17.963 68.324 17.789C68.516 17.579 68.674 17.34 68.787 17.079C68.942 16.771 69.017 16.429 69.003 16.085V15.21C69.002 14.8768 68.9283 14.5478 68.787 14.246C68.6509 13.8964 68.4287 13.5868 68.141 13.346C67.7858 13.0432 67.3767 12.8101 66.935 12.659C66.3176 12.4622 65.6704 12.3759 65.023 12.404C63.479 12.404 62.493 12.714 61.907 13.368C61.4271 13.9421 61.1455 14.6559 61.104 15.403C61.1035 15.442 61.0949 15.4805 61.0789 15.5161C61.0628 15.5517 61.0396 15.5836 61.0108 15.6098C60.9819 15.6361 60.9479 15.6561 60.911 15.6687C60.8741 15.6813 60.8349 15.6862 60.796 15.683H57.43C57.3482 15.6825 57.2698 15.6496 57.2121 15.5915C57.1544 15.5334 57.122 15.4549 57.122 15.373V14.559C57.1191 13.8108 57.266 13.0696 57.554 12.379C57.8564 11.6611 58.347 11.0382 58.974 10.576C59.6966 10.0175 60.5271 9.61471 61.413 9.393C62.6094 9.13409 63.8301 8.99839 65.054 8.988ZM68.973 21.276C68.9499 21.4167 68.8965 21.5507 68.8166 21.6688C68.7367 21.7869 68.6321 21.8862 68.51 21.96C68.3 22.106 68.072 22.221 67.83 22.303C67.368 22.489 66.844 22.644 66.32 22.833C65.796 23.021 65.27 23.207 64.807 23.362C64.252 23.578 63.695 23.736 63.265 23.922C62.885 24.104 62.523 24.322 62.185 24.575C61.8833 24.85 61.6327 25.1764 61.445 25.539C61.2054 25.9878 61.0871 26.4914 61.102 27C61.102 28.15 61.381 29.02 61.937 29.612C62.491 30.172 63.511 30.485 65.022 30.485C66.532 30.485 67.583 30.172 68.171 29.582C68.758 28.992 69.002 28.119 69.002 27.039L68.972 21.283V21.275L68.973 21.276ZM84.132 7.399H83.072V35H84.132V7.399ZM92.926 11.3C92.926 11.186 93.018 11.082 93.144 11.082H95.841C97.252 11.082 98.411 12.23 98.411 13.618C98.411 15.041 97.252 16.2 95.853 16.2H94.418V18.897C94.416 18.9542 94.3924 19.0085 94.352 19.0489C94.3115 19.0894 94.2572 19.113 94.2 19.115H93.144C93.1154 19.115 93.0871 19.1094 93.0606 19.0984C93.0342 19.0875 93.0101 19.0714 92.9899 19.0511C92.9696 19.0309 92.9536 19.0069 92.9426 18.9804C92.9317 18.954 92.926 18.9256 92.926 18.897V11.3ZM95.749 14.8C96.391 14.8 96.931 14.284 96.931 13.607C96.931 12.976 96.391 12.494 95.749 12.494H94.418V14.801L95.749 14.8ZM101.175 16.212C101.634 16.212 102.013 16.338 102.013 16.338C102.024 15.753 101.84 15.547 101.416 15.547C100.991 15.547 100.395 15.638 100.131 15.719C99.971 15.765 99.89 15.662 99.867 15.512L99.764 14.915C99.729 14.743 99.821 14.663 99.924 14.628C100.433 14.4888 100.958 14.4155 101.485 14.41C102.919 14.41 103.252 15.156 103.252 16.407V18.897C103.25 18.9542 103.226 19.0085 103.186 19.0489C103.146 19.0894 103.091 19.113 103.034 19.115H102.621C102.541 19.115 102.483 19.08 102.426 18.955L102.288 18.645C102.024 18.885 101.599 19.23 100.888 19.23C99.97 19.23 99.338 18.633 99.338 17.658C99.339 16.843 100.005 16.212 101.175 16.212ZM101.198 18.254C101.565 18.254 101.921 17.944 101.989 17.807V17.176C101.989 17.176 101.679 17.038 101.347 17.038C100.899 17.038 100.601 17.291 100.601 17.658C100.598 17.7372 100.611 17.8163 100.64 17.8901C100.669 17.964 100.713 18.031 100.769 18.087C100.825 18.1431 100.892 18.1868 100.966 18.2156C101.04 18.2443 101.119 18.2574 101.198 18.254ZM105.029 14.743C105.029 14.616 105.132 14.525 105.247 14.525H105.684C105.787 14.525 105.856 14.582 105.89 14.674L106.051 15.121C106.212 14.891 106.636 14.41 107.348 14.41C107.887 14.41 108.369 14.582 108.231 14.869L107.807 15.614C107.75 15.717 107.635 15.764 107.543 15.717C107.508 15.707 107.336 15.649 107.21 15.649C107.045 15.6478 106.882 15.6907 106.739 15.7733C106.596 15.8559 106.478 15.9753 106.396 16.119V18.896C106.396 19.056 106.292 19.114 106.132 19.114H105.248C105.191 19.1122 105.136 19.0887 105.096 19.0482C105.055 19.0077 105.032 18.9533 105.03 18.896L105.029 14.743ZM110.903 16.212C111.362 16.212 111.74 16.338 111.74 16.338C111.751 15.753 111.568 15.547 111.143 15.547C110.719 15.547 110.122 15.638 109.858 15.719C109.698 15.765 109.617 15.662 109.594 15.512L109.491 14.915C109.457 14.743 109.549 14.663 109.652 14.628C110.161 14.4888 110.685 14.4156 111.212 14.41C112.647 14.41 112.979 15.156 112.979 16.407V18.897C112.977 18.9542 112.953 19.0085 112.913 19.0489C112.873 19.0894 112.818 19.113 112.761 19.115H112.348C112.268 19.115 112.21 19.08 112.153 18.955L112.015 18.645C111.751 18.885 111.327 19.23 110.615 19.23C109.698 19.23 109.066 18.633 109.066 17.658C109.067 16.843 109.732 16.212 110.903 16.212ZM110.925 18.254C111.292 18.254 111.648 17.944 111.717 17.807V17.176C111.717 17.176 111.407 17.038 111.074 17.038C110.627 17.038 110.329 17.291 110.329 17.658C110.329 18.002 110.57 18.254 110.925 18.254ZM92.926 23.273C92.926 23.158 93.018 23.054 93.144 23.054H97.814C97.941 23.054 98.033 23.158 98.033 23.273V24.213C98.0332 24.2417 98.0276 24.2702 98.0167 24.2967C98.0058 24.3233 97.9898 24.3474 97.9695 24.3678C97.9493 24.3881 97.9252 24.4043 97.8987 24.4153C97.8722 24.4263 97.8437 24.432 97.815 24.432H94.418V26.313H97.252C97.367 26.313 97.47 26.417 97.47 26.532V27.484C97.47 27.5418 97.4471 27.5973 97.4062 27.6381C97.3653 27.679 97.3098 27.702 97.252 27.702H94.418V29.71H97.815C97.941 29.71 98.033 29.814 98.033 29.928V30.869C98.0332 30.8977 98.0276 30.9262 98.0167 30.9527C98.0058 30.9793 97.9898 31.0034 97.9695 31.0238C97.9493 31.0441 97.9252 31.0603 97.8987 31.0713C97.8722 31.0823 97.8437 31.088 97.815 31.088H93.145C93.1162 31.0881 93.0877 31.0826 93.0611 31.0716C93.0344 31.0606 93.0102 31.0445 92.9899 31.0242C92.9695 31.0038 92.9534 30.9796 92.9424 30.953C92.9315 30.9263 92.9259 30.8978 92.926 30.869V23.273ZM99.568 26.715C99.568 26.588 99.671 26.497 99.786 26.497H100.211C100.314 26.497 100.383 26.554 100.406 26.623L100.566 27.059C100.762 26.8459 100.999 26.6757 101.264 26.5591C101.529 26.4426 101.815 26.3823 102.104 26.382C102.758 26.382 103.217 26.634 103.596 27.093C103.791 26.887 104.387 26.382 105.214 26.382C106.682 26.382 107.222 27.472 107.222 28.677V30.868C107.222 30.8967 107.217 30.9252 107.206 30.9517C107.195 30.9783 107.179 31.0024 107.159 31.0228C107.138 31.0431 107.114 31.0593 107.088 31.0703C107.061 31.0813 107.033 31.087 107.004 31.087H106.074C106.045 31.087 106.017 31.0813 105.99 31.0703C105.964 31.0593 105.94 31.0431 105.92 31.0228C105.899 31.0024 105.883 30.9783 105.872 30.9517C105.861 30.9252 105.856 30.8967 105.856 30.868V28.597C105.856 28 105.569 27.621 104.995 27.621C104.33 27.621 104.031 28.103 104.031 28.103C104.031 28.103 104.043 28.333 104.043 28.539V30.869C104.041 30.9263 104.017 30.9806 103.976 31.021C103.936 31.0615 103.881 31.085 103.824 31.087H102.964C102.906 31.087 102.851 31.064 102.81 31.0231C102.769 30.9823 102.746 30.9268 102.746 30.869V28.597C102.746 28 102.482 27.621 101.896 27.621C101.323 27.621 101.047 28.034 100.932 28.344V30.868C100.93 30.9254 100.907 30.9799 100.866 31.0206C100.826 31.0612 100.771 31.085 100.714 31.087H99.784C99.7267 31.085 99.6722 31.0612 99.6318 31.0206C99.5913 30.9799 99.5678 30.9254 99.566 30.868V26.715H99.568ZM110.375 34.31C110.375 34.449 110.307 34.529 110.1 34.529H109.182C109.125 34.5272 109.07 34.5037 109.03 34.4632C108.989 34.4227 108.966 34.3683 108.964 34.311V26.715C108.964 26.588 109.067 26.497 109.182 26.497H109.63C109.71 26.497 109.79 26.543 109.824 26.634L109.974 27.013C110.146 26.783 110.708 26.382 111.454 26.382C112.716 26.382 113.669 27.472 113.669 28.792C113.669 30.145 112.636 31.201 111.397 31.201C110.949 31.201 110.536 31.041 110.375 30.948V34.31ZM111.213 29.962C111.855 29.962 112.326 29.434 112.326 28.792C112.326 28.149 111.89 27.622 111.259 27.622C110.673 27.622 110.387 28.08 110.318 28.322V29.698C110.318 29.698 110.639 29.962 111.213 29.962ZM115.159 26.715C115.159 26.588 115.262 26.497 115.377 26.497H115.813C115.916 26.497 115.985 26.554 116.02 26.646L116.181 27.093C116.341 26.863 116.766 26.382 117.477 26.382C118.016 26.382 118.498 26.554 118.361 26.841L117.936 27.586C117.879 27.69 117.764 27.736 117.672 27.69C117.565 27.6516 117.453 27.6281 117.34 27.62C117.175 27.6189 117.012 27.662 116.869 27.7448C116.725 27.8276 116.607 27.9471 116.525 28.091V30.868C116.525 31.028 116.422 31.086 116.261 31.086H115.377C115.32 31.084 115.266 31.0604 115.225 31.0199C115.185 30.9795 115.161 30.9252 115.159 30.868V26.715ZM121.492 26.382C122.674 26.382 123.638 27.277 123.638 28.516C123.638 28.596 123.627 28.746 123.615 28.826C123.608 28.8794 123.583 28.9286 123.543 28.9645C123.503 29.0003 123.451 29.0204 123.397 29.021H120.46C120.494 29.491 120.896 30.019 121.562 30.019C121.917 30.019 122.25 29.882 122.457 29.732C122.571 29.664 122.675 29.641 122.755 29.732L123.225 30.272C123.306 30.352 123.328 30.479 123.214 30.57C122.835 30.926 122.25 31.201 121.504 31.201C120.127 31.201 119.152 30.111 119.152 28.791C119.152 27.495 120.127 26.382 121.492 26.382ZM122.296 28.218C122.277 28.0076 122.181 27.8117 122.026 27.6678C121.872 27.5239 121.669 27.4421 121.458 27.438C121.24 27.4383 121.029 27.5174 120.865 27.6607C120.7 27.8041 120.593 28.002 120.563 28.218H122.296ZM124.807 30.536L125.117 29.916C125.163 29.801 125.278 29.779 125.381 29.836C125.381 29.836 125.897 30.111 126.425 30.111C126.654 30.111 126.815 30.02 126.815 29.825C126.815 29.618 126.655 29.492 126.046 29.251C125.163 28.906 124.75 28.436 124.75 27.736C124.75 27.036 125.266 26.382 126.436 26.382C127.113 26.382 127.607 26.577 127.848 26.738C127.951 26.807 128.008 26.933 127.951 27.048L127.664 27.633C127.607 27.736 127.48 27.747 127.389 27.713C127.389 27.713 126.872 27.473 126.436 27.473C126.161 27.473 126.046 27.587 126.046 27.736C126.046 27.943 126.253 28.012 126.677 28.184C127.561 28.528 128.227 28.906 128.227 29.801C128.227 30.559 127.561 31.201 126.402 31.201C125.645 31.201 125.117 30.961 124.876 30.777C124.807 30.719 124.76 30.627 124.807 30.536ZM131.197 28.184C131.656 28.184 132.034 28.31 132.034 28.31C132.046 27.725 131.862 27.519 131.438 27.519C131.013 27.519 130.417 27.61 130.153 27.691C129.992 27.737 129.912 27.633 129.889 27.484L129.786 26.887C129.751 26.715 129.843 26.635 129.946 26.6C130.455 26.4609 130.98 26.3877 131.507 26.382C132.941 26.382 133.274 27.128 133.274 28.379V30.869C133.272 30.9262 133.248 30.9805 133.208 31.0209C133.168 31.0614 133.113 31.085 133.056 31.087H132.642C132.562 31.087 132.505 31.052 132.448 30.926L132.31 30.616C132.046 30.857 131.621 31.201 130.91 31.201C129.992 31.201 129.361 30.605 129.361 29.629C129.361 28.815 130.027 28.184 131.197 28.184ZM131.22 30.226C131.587 30.226 131.943 29.916 132.011 29.779V29.148C132.011 29.148 131.701 29.01 131.369 29.01C130.921 29.01 130.623 29.262 130.623 29.63C130.623 29.974 130.864 30.226 131.22 30.226ZM134.798 30.536L135.108 29.916C135.154 29.801 135.269 29.779 135.372 29.836C135.372 29.836 135.889 30.111 136.417 30.111C136.646 30.111 136.807 30.02 136.807 29.825C136.807 29.618 136.646 29.492 136.038 29.251C135.154 28.906 134.741 28.436 134.741 27.736C134.741 27.036 135.257 26.382 136.428 26.382C137.105 26.382 137.598 26.577 137.839 26.738C137.942 26.807 138 26.933 137.942 27.048L137.656 27.633C137.598 27.736 137.472 27.747 137.38 27.713C137.38 27.713 136.864 27.473 136.428 27.473C136.153 27.473 136.038 27.587 136.038 27.736C136.038 27.943 136.245 28.012 136.669 28.184C137.553 28.528 138.218 28.906 138.218 29.801C138.218 30.559 137.553 31.201 136.394 31.201C135.636 31.201 135.108 30.961 134.868 30.777C134.798 30.719 134.753 30.627 134.798 30.536Z" fill="#030542"/>
</g>
<defs>
<clipPath id="clip0_908_526">
<rect width="139" height="35" fill="white"/>
</clipPath>
</defs>
</svg>
