<svg width="97" height="56" viewBox="0 0 97 56" fill="none" xmlns="http://www.w3.org/2000/svg">
<path d="M54.8974 52.187H55.6193C55.8127 52.1738 56.0061 52.2268 56.1737 52.3459C56.3027 52.4651 56.38 52.6372 56.3671 52.8093C56.38 52.9814 56.3156 53.1667 56.1995 53.2991C56.0706 53.4315 55.903 53.5109 55.7225 53.5374V53.5506C56.0061 53.6036 56.2124 53.8683 56.1995 54.1728C56.2124 54.4111 56.1093 54.6494 55.9288 54.8083C55.7225 54.9671 55.4517 55.0598 55.1939 55.0333H54.3301L54.8974 52.187ZM54.7942 53.63L54.5364 54.8612H55.181C55.3873 54.8745 55.5936 54.8083 55.7612 54.6891C55.903 54.57 55.9803 54.3846 55.9674 54.1861C55.9803 54.0272 55.9159 53.8683 55.7998 53.7624C55.6451 53.6565 55.4646 53.6168 55.2841 53.63H54.7942ZM54.8329 53.4579H55.3615C55.5678 53.4712 55.7741 53.4182 55.9546 53.2991C56.0964 53.1932 56.1737 53.0211 56.1608 52.8357C56.1737 52.7033 56.1093 52.571 56.019 52.4783C55.8901 52.3856 55.7354 52.3459 55.5807 52.3591H55.065L54.8329 53.4579Z" fill="#030542"/>
<path d="M56.6251 52.915H56.8185L56.9732 53.9874C57.0377 54.4375 57.0763 54.7287 57.0763 54.8611H57.1021C57.1537 54.7287 57.2697 54.4904 57.4502 54.1462L58.1078 52.915H58.3012L56.9474 55.4304C56.883 55.5495 56.8056 55.6686 56.7154 55.7745C56.6509 55.8407 56.5735 55.8937 56.4962 55.9334C56.4059 55.9731 56.3157 55.9996 56.2254 55.9864C56.1481 55.9864 56.0578 55.9731 55.9805 55.9467V55.7613C56.0578 55.801 56.1481 55.8143 56.2383 55.8143C56.3415 55.8143 56.4317 55.7745 56.522 55.7216C56.6251 55.6289 56.7025 55.523 56.7669 55.4039C56.8443 55.2582 56.9087 55.1391 56.9603 55.0464L56.6251 52.915Z" fill="#030542"/>
<path d="M60.712 54.2526H59.7966L59.397 55.047H58.9199L60.4026 52.2007H60.9183L61.2277 55.047H60.7894L60.712 54.2526ZM60.6862 53.8423C60.6346 53.2995 60.6089 52.9818 60.596 52.8626C60.5831 52.7435 60.5831 52.664 60.5831 52.5978C60.5186 52.7699 60.4284 52.9685 60.3123 53.1936L59.99 53.8423H60.6862Z" fill="#030542"/>
<path d="M61.9743 55.0336H61.5361L62.1675 52.002H62.6186L61.9743 55.0336Z" fill="#030542"/>
<path d="M63.4712 52.8892L63.2262 54.0806C63.2005 54.1998 63.1747 54.3322 63.1618 54.4513C63.1618 54.6234 63.2391 54.7161 63.4067 54.7161C63.5099 54.7161 63.6001 54.6764 63.6775 54.6102C63.7806 54.5175 63.858 54.4116 63.9224 54.2792C63.9998 54.1203 64.0514 53.9615 64.0772 53.8026L64.2706 52.8892H64.7089L64.2706 55.047H63.9224L63.9611 54.6499H63.9482C63.858 54.7823 63.7548 54.9014 63.6259 54.9808C63.5228 55.047 63.3939 55.0867 63.2649 55.0867C63.1231 55.1 62.9813 55.047 62.8781 54.9411C62.775 54.822 62.7363 54.6764 62.7363 54.5175C62.7363 54.4381 62.7492 54.3586 62.7621 54.2792C62.775 54.1998 62.7879 54.1203 62.8008 54.0409L63.0329 52.9024L63.4712 52.8892Z" fill="#030542"/>
<path d="M66.319 52.8496C66.3834 52.8496 66.4608 52.8628 66.5252 52.8761L66.4221 53.2997C66.3577 53.2865 66.2932 53.2732 66.2288 53.2732C66.0613 53.2732 65.9067 53.3527 65.8036 53.4983C65.6747 53.6704 65.5845 53.869 65.5459 54.0808L65.3397 55.0604H64.8887L65.3397 52.9026H65.6876L65.6489 53.2997H65.6618C65.7391 53.1673 65.8551 53.0482 65.9711 52.9688C66.0871 52.8761 66.203 52.8496 66.319 52.8496Z" fill="#030542"/>
<path d="M67.1456 55.0732C66.978 55.0865 66.8233 55.007 66.7201 54.8747C66.6041 54.7158 66.5525 54.5172 66.5654 54.3186C66.5654 54.0671 66.6041 53.8156 66.6943 53.5773C66.7717 53.3655 66.9006 53.1801 67.0553 53.0345C67.1972 52.9021 67.3777 52.8359 67.571 52.8359C67.6871 52.8359 67.7902 52.8624 67.8934 52.9286C67.9836 52.9948 68.061 53.0875 68.0996 53.1934H68.1254L68.2415 52.8889H68.5896L68.1383 55.0468H67.7773L67.816 54.7026H67.8031C67.6097 54.9541 67.3905 55.0732 67.1456 55.0732ZM67.3132 54.7026C67.4292 54.6893 67.5453 54.6364 67.6226 54.5569C67.7258 54.4378 67.816 54.3054 67.8676 54.1465C67.932 53.9744 67.9707 53.7759 67.9707 53.5905C67.9707 53.4846 67.9449 53.392 67.8805 53.3125C67.816 53.2463 67.7386 53.2066 67.6484 53.2066C67.5324 53.2066 67.4163 53.2596 67.339 53.3522C67.2358 53.4714 67.1585 53.6038 67.1069 53.7626C67.0553 53.9347 67.0167 54.1068 67.0167 54.2922C67.0038 54.3981 67.0424 54.504 67.094 54.5834C67.1456 54.6761 67.2229 54.7158 67.3132 54.7026Z" fill="#030542"/>
<path d="M71.8769 52.9683C71.8898 53.2595 71.7738 53.5243 71.5546 53.7096C71.2967 53.895 70.9744 53.9876 70.6521 53.9744H70.4458L70.2266 55.0335H69.7754L70.3556 52.1872H70.9873C71.2194 52.174 71.4514 52.2402 71.6448 52.3858C71.8124 52.5446 71.8898 52.7565 71.8769 52.9683ZM70.5361 53.5772H70.7166C70.8971 53.5905 71.0904 53.5375 71.2323 53.4184C71.3612 53.3125 71.4257 53.1536 71.4128 52.9815C71.4257 52.8624 71.387 52.7565 71.2967 52.677C71.1936 52.6108 71.0776 52.5711 70.9615 52.5844H70.7423L70.5361 53.5772Z" fill="#030542"/>
<path d="M72.6378 55.0732C72.4702 55.0865 72.3155 55.007 72.2123 54.8747C72.0963 54.7158 72.0447 54.5172 72.0576 54.3186C72.0576 54.0671 72.0963 53.8156 72.1865 53.5773C72.2639 53.3655 72.3799 53.1801 72.5475 53.0345C72.6893 52.9021 72.8698 52.8359 73.0503 52.8359C73.1664 52.8359 73.2695 52.8624 73.3727 52.9286C73.4629 52.9948 73.5403 53.0875 73.5789 53.1934H73.6047L73.7207 52.8889H74.0689L73.6176 55.0468H73.2695L73.3082 54.7026H73.2953C73.1019 54.9541 72.8827 55.0732 72.6378 55.0732ZM72.8054 54.7026C72.9214 54.6893 73.0374 54.6364 73.1148 54.5569C73.2179 54.4378 73.3082 54.3054 73.3598 54.1465C73.4242 53.9744 73.4629 53.7759 73.4629 53.5905C73.4629 53.4846 73.4371 53.392 73.3727 53.3125C73.3082 53.2463 73.2308 53.2066 73.1406 53.2066C73.0245 53.2066 72.9085 53.2596 72.844 53.3522C72.7409 53.4714 72.6636 53.6038 72.612 53.7626C72.5604 53.9347 72.5217 54.1068 72.5217 54.2922C72.5088 54.3981 72.5475 54.504 72.5991 54.5834C72.6378 54.6761 72.7151 54.7158 72.8054 54.7026Z" fill="#030542"/>
<path d="M75.6401 52.8496C75.7045 52.8496 75.7819 52.8628 75.8463 52.8761L75.7432 53.2997C75.6788 53.2865 75.6143 53.2732 75.5499 53.2732C75.3824 53.2732 75.2278 53.3527 75.1247 53.4851C74.9958 53.6572 74.9056 53.8557 74.867 54.0675L74.6608 55.0472H74.2227L74.6737 52.8893H75.0216L74.9829 53.2865H74.9958C75.0731 53.1541 75.1891 53.0349 75.318 52.9555C75.4082 52.8761 75.5241 52.8496 75.6401 52.8496Z" fill="#030542"/>
<path d="M76.4796 55.0732C76.312 55.0865 76.1572 55.007 76.0541 54.8747C75.9381 54.7158 75.8865 54.5172 75.8994 54.3186C75.8994 54.0671 75.9381 53.8156 76.0283 53.5773C76.1057 53.3655 76.2217 53.1801 76.3893 53.0345C76.5311 52.9021 76.7116 52.8359 76.905 52.8359C77.0211 52.8359 77.1242 52.8624 77.2273 52.9286C77.3176 52.9948 77.3949 53.0875 77.4336 53.1934H77.4594L77.5754 52.8889H77.9235L77.4723 55.0468H77.1242L77.1629 54.7026H77.15C76.9308 54.9541 76.7116 55.0732 76.4796 55.0732ZM76.6343 54.7026C76.7503 54.6893 76.8663 54.6364 76.9437 54.5569C77.0468 54.4378 77.1371 54.3054 77.1887 54.1465C77.2531 53.9744 77.2918 53.7759 77.2918 53.5905C77.2918 53.4846 77.266 53.392 77.2016 53.3125C77.1371 53.2463 77.0597 53.2066 76.9695 53.2066C76.8535 53.2066 76.7374 53.2596 76.6601 53.3522C76.5569 53.4714 76.4796 53.6038 76.428 53.7626C76.3764 53.9347 76.3377 54.1068 76.3377 54.2922C76.3249 54.3981 76.3506 54.504 76.4151 54.5834C76.4667 54.6628 76.5569 54.7158 76.6343 54.7026Z" fill="#030542"/>
<path d="M80.5791 55.0338H79.1094L79.6895 52.1875H81.1593L81.082 52.5847H80.0634L79.9087 53.3525H80.8628L80.7854 53.7496H79.8314L79.6509 54.6366H80.6823L80.5791 55.0338Z" fill="#030542"/>
<path d="M85.6836 30.1982C85.6836 29.9466 85.877 29.748 86.1219 29.748H95.611C95.8559 29.748 96.0493 29.9466 96.0493 30.1982V32.7664C96.0493 33.018 95.8559 33.2165 95.611 33.2165H89.2549V36.1422H94.4893C94.7214 36.1555 94.9147 36.3408 94.9276 36.5923V39.1606C94.9276 39.4121 94.7342 39.6107 94.4893 39.6107H89.2549V42.788H95.611C95.8559 42.788 96.0493 42.9865 96.0493 43.2381V45.8063C96.0493 46.0579 95.8559 46.2564 95.611 46.2564H86.1219C85.877 46.2564 85.6836 46.0579 85.6836 45.8063V30.1982Z" fill="#030542"/>
<path d="M82.5526 52.8492C82.8362 52.8492 82.9909 53.008 83.0296 53.3125H83.0425C83.1199 53.1669 83.2359 53.0477 83.3648 52.9683C83.4809 52.8889 83.6098 52.8492 83.7387 52.8492C83.8805 52.8359 84.0223 52.8889 84.1255 52.9948C84.2157 53.1139 84.2673 53.2596 84.2544 53.4184C84.2544 53.5376 84.2415 53.6567 84.2157 53.7759L83.945 55.0468H83.5066L83.7774 53.7361C83.8032 53.6435 83.8032 53.564 83.8161 53.4714C83.8161 53.2993 83.7387 53.2198 83.584 53.2198C83.4293 53.2331 83.2746 53.3257 83.1972 53.4581C83.0683 53.6435 82.978 53.8685 82.9394 54.0936L82.746 55.0335H82.2947L82.5655 53.7229C82.5784 53.6435 82.5913 53.564 82.5913 53.4714C82.5913 53.2993 82.5139 53.2066 82.3721 53.2066C82.2174 53.2198 82.0627 53.3125 81.9853 53.4581C81.8564 53.6567 81.7661 53.8818 81.7274 54.1201L81.5469 55.0335H81.0957L81.5469 52.8756H81.8951L81.8564 53.2728H81.8693C82.0755 52.9815 82.2947 52.8492 82.5526 52.8492Z" fill="#030542"/>
<path d="M85.5682 55.0732C85.349 55.0732 85.1427 54.9408 85.0525 54.729H85.0396C85.0267 54.8481 85.0138 54.9672 84.988 55.0864L84.8075 55.9998H84.3691L85.0138 52.8888H85.3619L85.3232 53.2595H85.3361C85.5295 52.9947 85.7487 52.8491 85.9936 52.8491C86.1612 52.8359 86.3159 52.9153 86.4191 53.0477C86.5351 53.2065 86.5867 53.4051 86.5738 53.6037C86.5738 53.8552 86.5351 54.1067 86.4449 54.345C86.3675 54.5569 86.2515 54.7422 86.0839 54.8878C85.942 55.007 85.7487 55.0732 85.5682 55.0732ZM85.826 53.2198C85.71 53.233 85.5939 53.286 85.5166 53.3786C85.4134 53.4978 85.3232 53.6302 85.2716 53.789C85.2072 53.9611 85.1814 54.1332 85.1814 54.3186C85.1685 54.4245 85.2072 54.5304 85.2716 54.6098C85.3361 54.676 85.4263 54.7157 85.5166 54.7157C85.6326 54.7157 85.7487 54.6495 85.8131 54.5569C85.9163 54.4377 85.9807 54.2921 86.0323 54.1465C86.0839 53.9744 86.1097 53.8023 86.1097 53.6169C86.1097 53.3522 86.0194 53.2198 85.826 53.2198Z" fill="#030542"/>
<path d="M88.2634 52.8496C88.3278 52.8496 88.4051 52.8628 88.4695 52.8761L88.3664 53.2997C88.302 53.2865 88.2376 53.2732 88.1732 53.2732C88.0056 53.2732 87.851 53.3527 87.7479 53.4851C87.6191 53.6572 87.5289 53.8557 87.4902 54.0675L87.284 55.0472H86.833L87.284 52.8893H87.6319L87.5933 53.2865H87.6062C87.6835 53.1541 87.7995 53.0349 87.9283 52.9555C88.0314 52.8761 88.1474 52.8496 88.2634 52.8496Z" fill="#030542"/>
<path d="M89.3079 55.0733C89.0889 55.0865 88.8827 55.0071 88.7281 54.8615C88.5863 54.7026 88.509 54.4776 88.5219 54.2525C88.5219 54.001 88.5734 53.7627 88.6636 53.5376C88.7538 53.339 88.8827 53.1537 89.0631 53.0213C89.2306 52.9022 89.4239 52.836 89.6301 52.836C89.7976 52.8227 89.9651 52.8757 90.1069 52.9816C90.2228 53.0743 90.2873 53.2331 90.2744 53.3788C90.2744 53.6038 90.1584 53.8289 89.9522 53.9348C89.6687 54.0804 89.3595 54.1466 89.0502 54.1334H88.9729V54.1995V54.2525C88.96 54.3716 88.9987 54.4908 89.076 54.5967C89.1533 54.6894 89.2822 54.7291 89.3981 54.7158C89.4883 54.7158 89.5785 54.7026 89.6687 54.6761C89.7847 54.6364 89.8878 54.5967 89.9909 54.5437V54.9144C89.8878 54.9674 89.7718 55.0071 89.6559 55.0336C89.5399 55.06 89.4239 55.0733 89.3079 55.0733ZM89.5914 53.1934C89.4626 53.1934 89.3337 53.2596 89.2435 53.3655C89.1275 53.4847 89.0502 53.6435 89.0116 53.8024H89.0631C89.2564 53.8156 89.4497 53.7759 89.6172 53.6965C89.7332 53.6435 89.8105 53.5376 89.8234 53.4052C89.8234 53.3523 89.8105 53.2861 89.7589 53.2464C89.7203 53.2067 89.6559 53.1934 89.5914 53.1934Z" fill="#030542"/>
<path d="M91.8592 54.3718C91.8721 54.5704 91.7819 54.769 91.6402 54.8881C91.4598 55.0205 91.2407 55.0867 91.0217 55.0734C90.8155 55.0734 90.5964 55.0337 90.416 54.9411V54.5439C90.5964 54.6498 90.8026 54.716 91.0088 54.716C91.1119 54.716 91.2149 54.6895 91.3051 54.6366C91.3825 54.5969 91.4211 54.5042 91.4211 54.4248C91.4211 54.3586 91.3954 54.3056 91.3567 54.2527C91.2794 54.1732 91.1892 54.107 91.0861 54.0673C90.9572 54.0011 90.8413 53.9085 90.7511 53.8026C90.6866 53.7099 90.648 53.5907 90.648 53.4848C90.6351 53.2995 90.7124 53.1274 90.8541 53.0082C91.0088 52.8891 91.2021 52.8229 91.4082 52.8361C91.6402 52.8361 91.8592 52.8891 92.0654 52.995L91.9237 53.3392C91.769 53.2465 91.6015 53.1936 91.4211 53.1936C91.3438 53.1936 91.2665 53.2068 91.2021 53.2598C91.1505 53.2995 91.1119 53.3657 91.1119 53.4451C91.1119 53.4981 91.1376 53.5643 91.1763 53.604C91.2536 53.6702 91.3438 53.7364 91.434 53.7761C91.5371 53.829 91.6273 53.8952 91.7175 53.9747C91.769 54.0276 91.8206 54.0806 91.8464 54.16C91.8464 54.2262 91.8592 54.3056 91.8592 54.3718Z" fill="#030542"/>
<path d="M92.879 55.0732C92.7114 55.0865 92.5567 55.007 92.4535 54.8747C92.3375 54.7158 92.2859 54.5172 92.2988 54.3186C92.2988 54.0671 92.3375 53.8156 92.4277 53.5773C92.5051 53.3655 92.6211 53.1801 92.7887 53.0345C92.9305 52.9021 93.111 52.8359 93.2915 52.8359C93.4076 52.8359 93.5107 52.8624 93.6139 52.9286C93.7041 52.9948 93.7815 53.0875 93.8201 53.1934H93.8459L93.962 52.8889H94.3101L93.8588 55.0468H93.5107L93.5494 54.7026H93.5365C93.3431 54.9541 93.1239 55.0732 92.879 55.0732ZM93.0466 54.7026C93.1626 54.6893 93.2787 54.6364 93.356 54.5569C93.4592 54.4378 93.5494 54.3054 93.601 54.1465C93.6654 53.9744 93.7041 53.7759 93.7041 53.5905C93.7041 53.4846 93.6783 53.392 93.6139 53.3125C93.5494 53.2463 93.472 53.2066 93.3818 53.2066C93.2658 53.2066 93.1497 53.2596 93.0853 53.3522C92.9821 53.4714 92.9048 53.6038 92.8532 53.7626C92.8016 53.9347 92.7629 54.1068 92.7629 54.2922C92.75 54.3981 92.7887 54.504 92.8403 54.5834C92.879 54.6761 92.9563 54.7158 93.0466 54.7026Z" fill="#030542"/>
<path d="M95.8553 54.3713C95.8682 54.5699 95.778 54.7685 95.6363 54.8876C95.4559 55.02 95.2368 55.0862 95.0178 55.073C94.8116 55.073 94.5925 55.0332 94.4121 54.9406V54.5434C94.5925 54.6493 94.7987 54.7155 95.0049 54.7155C95.108 54.7155 95.211 54.689 95.3012 54.6361C95.3786 54.5964 95.4172 54.5037 95.4172 54.4243C95.4172 54.3581 95.3914 54.3051 95.3528 54.2522C95.2755 54.1727 95.1853 54.1065 95.0822 54.0668C94.9533 54.0006 94.8374 53.908 94.7471 53.8021C94.6827 53.7094 94.6441 53.5902 94.6441 53.4843C94.6312 53.299 94.7085 53.1269 94.8502 53.0078C95.0049 52.8886 95.1982 52.8224 95.3914 52.8357C95.6234 52.8357 95.8425 52.8886 96.0486 52.9945L95.9069 53.3387C95.7523 53.246 95.5847 53.1931 95.4043 53.1931C95.327 53.1931 95.2497 53.2063 95.1853 53.2593C95.1337 53.299 95.0951 53.3652 95.0951 53.4446C95.0951 53.4976 95.1208 53.5638 95.1595 53.6035C95.2368 53.6697 95.327 53.7359 95.4172 53.7756C95.5203 53.8285 95.6105 53.8947 95.7007 53.9742C95.7522 54.0271 95.7909 54.0801 95.8296 54.1595C95.8425 54.2257 95.8553 54.3051 95.8553 54.3713Z" fill="#030542"/>
<path d="M49.3142 7.5203C48.3989 6.77894 47.058 6.38179 45.1757 6.38179C44.3248 6.36855 43.461 6.44798 42.6229 6.62008C42.017 6.79218 41.4368 7.07019 40.934 7.45411C40.5085 7.78507 40.1733 8.23518 39.967 8.73824C39.7737 9.22806 39.6705 9.74436 39.6834 10.2739V10.8167C39.6318 10.9623 39.735 11.0682 39.8768 11.0682H42.1846C42.2877 11.055 42.3651 10.9755 42.378 10.8696C42.4167 10.3401 42.6229 9.83703 42.9581 9.43988C43.3449 8.98977 44.0669 8.75148 45.1241 8.75148C45.5754 8.73824 46.0395 8.80443 46.465 8.95006C46.7615 9.0692 47.0451 9.22806 47.2772 9.43988C47.6253 9.79732 47.8316 10.2739 47.8574 10.777V11.4654C47.8574 11.7037 47.8058 11.942 47.7155 12.1538C47.6382 12.3391 47.5222 12.5112 47.3803 12.6436C47.2772 12.7892 47.1483 12.8951 46.9936 12.9878C46.8904 13.0672 46.7744 13.1334 46.6583 13.1864C46.6068 13.2393 46.4134 13.2923 46.0266 13.4379C45.6398 13.5835 45.3046 13.7291 44.8276 13.888C44.3506 14.0469 43.8606 14.1793 43.3836 14.3778C42.9066 14.5764 42.4682 14.6691 42.0814 14.8279C41.3208 15.0795 40.689 15.609 40.3023 16.3107C39.9026 16.9858 39.6834 17.7536 39.6834 18.5347V20.0704C39.7092 20.5073 39.7994 20.9441 39.9284 21.3545C40.0831 21.8576 40.3667 22.2944 40.7406 22.6386C41.2047 23.102 41.7591 23.433 42.378 23.6315C43.2676 23.9095 44.1958 24.0419 45.1241 24.0287C46.0524 24.0684 46.9807 23.936 47.8703 23.6315C48.4891 23.433 49.0693 23.0888 49.5463 22.6386C49.9331 22.2944 50.2167 21.8576 50.3714 21.3545C50.5261 20.9441 50.6035 20.5073 50.6164 20.0704V10.3931C50.6164 9.26778 50.1394 8.22194 49.3142 7.5203ZM47.2901 20.9044C46.9033 21.3016 46.1297 21.5399 45.1241 21.5399C44.1185 21.5399 43.3965 21.3413 43.0097 20.9441C42.5843 20.4146 42.378 19.7527 42.4295 19.0643C42.4295 18.7201 42.4811 18.3229 42.6745 18.0317C42.8292 17.7801 42.9968 17.5418 43.2031 17.3433C43.3965 17.1976 43.6801 17.052 43.9251 16.8931C44.2087 16.7475 44.6471 16.6416 44.9823 16.496C45.3175 16.3371 45.6785 16.2047 46.0395 16.0988C46.4263 16.0062 46.7615 15.8473 47.0967 15.7546C47.2643 15.7017 47.4319 15.6223 47.5737 15.5031C47.7542 15.3972 47.8703 15.2119 47.9089 15.0133L47.8574 19.0643C47.9089 19.7262 47.7027 20.3881 47.2901 20.9044Z" fill="#030542"/>
<path d="M37.0021 6.38203H38.5363C38.6395 6.39526 38.7168 6.4747 38.7297 6.5806V6.62032L38.2011 8.69876C38.2011 8.80467 38.1109 8.84438 38.0077 8.84438H36.9505C36.4735 8.83115 35.9965 8.91058 35.5581 9.09592C35.2487 9.21506 34.9651 9.4004 34.7459 9.63869C34.5783 9.82403 34.4365 10.0358 34.3591 10.2741C34.3075 10.486 34.2689 10.6978 34.256 10.9096V23.7509C34.2689 23.8833 34.1657 23.9892 34.0497 24.0025C34.0368 24.0025 34.0368 24.0025 34.0239 24.0025H31.7161C31.6001 23.9892 31.5098 23.8833 31.5227 23.7509V10.38C31.5227 10.0358 31.5743 9.67841 31.6645 9.34745C31.7548 8.84438 31.9997 8.38104 32.335 8.01036C32.7991 7.52054 33.3535 7.12338 33.9723 6.87185C34.9264 6.48793 35.9707 6.31583 37.0021 6.38203Z" fill="#030542"/>
<path d="M29.163 19.4089V20.0046C29.163 20.3753 29.1114 20.7327 29.0212 21.0902C28.918 21.5932 28.686 22.0433 28.3508 22.4272C27.8866 22.9171 27.3322 23.3142 26.7134 23.5658C25.7464 23.9232 24.715 24.0953 23.6836 24.0556C22.6522 24.0821 21.6208 23.9232 20.6538 23.5658C20.035 23.3275 19.4677 22.9303 19.0165 22.4272C18.6812 22.0566 18.4492 21.5932 18.346 21.0902C18.2429 20.746 18.2429 20.4018 18.2042 20.0576V6.58078C18.1913 6.44839 18.2945 6.34248 18.4105 6.32924C18.4234 6.32924 18.4234 6.32924 18.4363 6.32924H20.6925C20.8214 6.31601 20.9246 6.42191 20.9375 6.5543C20.9375 6.56754 20.9375 6.56754 20.9375 6.58078V19.1309C20.9504 19.4486 20.9761 19.7531 21.0406 20.0708C21.118 20.3223 21.2598 20.5606 21.4274 20.7592C21.6466 21.0107 21.9302 21.1961 22.2396 21.302C22.7038 21.4608 23.1937 21.5403 23.6836 21.5535C24.1864 21.5667 24.7021 21.4873 25.1792 21.302C25.4886 21.2093 25.7722 21.0372 25.9914 20.8121C26.1848 20.64 26.3137 20.415 26.3782 20.1635C26.4813 19.8457 26.52 19.5148 26.52 19.1706V6.58078C26.5071 6.46163 26.5973 6.34248 26.7134 6.32924H29.0212C29.1501 6.31601 29.2532 6.42191 29.2661 6.5543C29.2661 6.56754 29.2661 6.56754 29.2661 6.58078L29.163 19.4089Z" fill="#030542"/>
<path d="M13.4344 0.00112208H15.6906C15.8196 -0.0121164 15.9227 0.0937913 15.9356 0.212938C15.9356 0.226176 15.9356 0.239415 15.9356 0.239415V23.8039C15.9485 23.9363 15.8453 24.0422 15.7164 24.0555C15.7035 24.0555 15.7035 24.0555 15.6906 24.0555H13.4344C13.3055 24.0687 13.2023 23.9628 13.1895 23.8304C13.1895 23.8172 13.1895 23.8172 13.1895 23.8039V0.239415C13.241 0.0937914 13.3313 0.00112208 13.4344 0.00112208Z" fill="#030542"/>
<path d="M0.0136719 30.1982C0.0265645 29.9599 0.207062 29.7613 0.452022 29.748H3.19816C3.43023 29.7613 3.62362 29.9466 3.63651 30.1982V45.7931C3.62362 46.0314 3.44312 46.23 3.19816 46.2432H0.452022C0.219954 46.23 0.0265645 46.0446 0.0136719 45.7931V30.1982Z" fill="#030542"/>
<path d="M7.55566 29.9466C7.56856 29.7083 7.76195 29.5229 7.99402 29.5229H8.56129L17.7151 38.5648H17.7409V30.1981C17.7409 29.9466 17.9343 29.748 18.1792 29.748H20.9254C21.1574 29.7612 21.3508 29.9466 21.3637 30.1981V46.0446C21.3508 46.2829 21.1574 46.4682 20.9254 46.4682H20.5644C20.4612 46.455 20.3581 46.4153 20.2678 46.3491L11.2043 37.0027H11.1785V45.7931C11.1785 46.0446 10.9851 46.2432 10.7402 46.2432H8.0198C7.78773 46.2299 7.59434 46.0446 7.58145 45.7931L7.55566 29.9466Z" fill="#030542"/>
<path d="M32.4253 29.5229C34.7202 29.5229 36.4221 30.2511 37.9692 31.7073C38.1497 31.8529 38.1755 32.1309 38.0336 32.3295C38.0208 32.3427 38.0079 32.356 37.995 32.3692L36.2029 34.2888C36.0482 34.4477 35.7903 34.4477 35.6356 34.2888C34.7847 33.521 33.6759 33.0841 32.5414 33.0841C29.9499 33.0841 28.0418 35.2949 28.0418 37.9294C28.0418 40.5506 29.9757 42.7085 32.5543 42.7085C33.6759 42.7085 34.7589 42.3113 35.6227 41.5832C35.8032 41.4376 36.0482 41.4508 36.2158 41.6097L38.0079 43.5557C38.1626 43.7411 38.1497 44.0191 37.9821 44.1912C36.4865 45.6739 34.4882 46.4947 32.4124 46.4815C27.8484 46.4815 24.1611 42.682 24.1611 38.0088C24.1611 33.3356 27.8613 29.5229 32.4253 29.5229Z" fill="#030542"/>
<path d="M40.7412 30.1982C40.7412 29.9466 40.9346 29.748 41.1796 29.748H43.9128C44.1449 29.7613 44.3383 29.9466 44.3512 30.1982V42.7747H49.8048C50.0497 42.7747 50.2431 42.9733 50.2431 43.2248V45.7931C50.2431 46.0446 50.0497 46.2432 49.8048 46.2432H41.1796C40.9346 46.2432 40.7412 46.0446 40.7412 45.7931V30.1982Z" fill="#030542"/>
<path d="M52.0469 30.1982C52.0598 29.9599 52.2403 29.7613 52.4852 29.748H55.3087C55.5537 29.748 55.7471 29.9466 55.7471 30.1982V39.7299C55.7471 41.3847 56.9332 42.6953 58.5706 42.6953C60.2208 42.6953 61.4327 41.3714 61.4327 39.7299V30.1982C61.4327 29.9466 61.6261 29.748 61.8711 29.748H64.6946C64.9267 29.7613 65.12 29.9466 65.1329 30.1982V39.9284C65.1329 43.5028 62.1934 46.4815 58.5706 46.4815C54.9735 46.4815 52.0598 43.5161 52.0598 39.9284L52.0469 30.1982Z" fill="#030542"/>
<path d="M68.8213 30.1982C68.8213 29.9599 69.0018 29.7613 69.2339 29.748H74.8293C79.2515 29.748 82.8743 33.4416 82.8743 37.9691C82.8743 42.5364 79.2644 46.23 74.8293 46.23H69.2339C69.0018 46.2167 68.8213 46.0181 68.8213 45.7799V30.1982ZM74.5972 42.7615C77.1886 42.7615 79.071 40.6698 79.071 37.9824C79.071 35.3214 77.1886 33.2298 74.5972 33.2298H72.3926V42.7615H74.5972Z" fill="#030542"/>
<path d="M9.63083 7.5203C8.71545 6.77894 7.37461 6.38179 5.49228 6.38179C4.64136 6.36855 3.77755 6.44798 2.93953 6.62008C2.32068 6.76571 1.7534 7.05695 1.26348 7.45411C0.838024 7.78507 0.502814 8.23518 0.296531 8.73824C0.103141 9.22806 0.012893 9.74437 0.012893 10.2739V10.8696C2.94898e-07 11.002 0.103141 11.1079 0.219176 11.1212C0.232068 11.1212 0.232068 11.1212 0.244961 11.1212H2.50118C2.60432 11.1079 2.68168 11.0285 2.69457 10.9226C2.73325 10.3931 2.93953 9.88999 3.27474 9.49283C3.66152 9.04273 4.38351 8.80443 5.44071 8.80443C5.89195 8.75148 6.35609 8.80443 6.79444 8.95006C7.09097 9.0692 7.37461 9.22807 7.60668 9.43988C7.95478 9.78408 8.16106 10.2739 8.18685 10.777V11.4654C8.18685 11.7037 8.13528 11.942 8.04503 12.1538C7.96767 12.3391 7.85164 12.5112 7.70982 12.6436C7.60668 12.7892 7.47775 12.8951 7.32304 12.9878C7.2199 13.0672 7.10386 13.1334 6.98783 13.1864C6.93626 13.2393 6.74287 13.2923 6.36898 13.4379C5.99509 13.5835 5.64699 13.7292 5.16996 13.888C4.69293 14.0469 4.2159 14.1793 3.72598 14.3778C3.23606 14.5764 2.79771 14.6691 2.41093 14.8279C1.66315 15.0795 1.01852 15.609 0.631741 16.3107C0.232068 16.9858 0.0128927 17.7537 0 18.5347V20.0571C0.0257853 20.494 0.116034 20.9309 0.244961 21.3413C0.399673 21.8443 0.683312 22.2812 1.0572 22.6254C1.52134 23.0888 2.07572 23.4197 2.69457 23.6183C3.58416 23.8963 4.51244 24.0287 5.44071 24.0155C6.36898 24.0552 7.29725 23.9228 8.18685 23.6183C8.8057 23.4197 9.38587 23.0755 9.87579 22.6254C10.2626 22.2812 10.5462 21.8443 10.688 21.3413C10.8427 20.9309 10.9201 20.494 10.933 20.0571V10.3798C10.933 9.26778 10.456 8.22194 9.63083 7.5203ZM7.65825 20.9044C7.27147 21.3016 6.54948 21.5399 5.49228 21.5399C4.43508 21.5399 3.71309 21.3413 3.32631 20.9441C2.90085 20.4146 2.69457 19.7527 2.74614 19.0643C2.74614 18.7068 2.83639 18.3494 2.97821 18.0317C3.13292 17.7801 3.30052 17.5551 3.50681 17.3433C3.7002 17.1976 3.98384 17.052 4.2288 16.8932C4.51244 16.7475 4.95079 16.6416 5.286 16.496C5.62121 16.3371 5.9822 16.2047 6.3432 16.0988C6.72998 16.0062 7.06519 15.8473 7.40039 15.7546C7.568 15.7017 7.7356 15.6223 7.87742 15.5031C8.05792 15.3972 8.17395 15.2119 8.21263 15.0133V19.0643C8.30288 19.7394 8.08371 20.4013 7.65825 20.9044Z" fill="#030542"/>
</svg>
