<svg width="127" height="59" fill="none" xmlns="http://www.w3.org/2000/svg"><path d="M17.357 0h2.905c.175 0 .315.14.315.315v29.607c0 .174-.14.314-.315.314h-2.905a.314.314 0 01-.315-.314V.315c.035-.175.175-.315.315-.315zm20.298 24.427v.735c0 .42-.07.945-.175 1.365a3.54 3.54 0 01-.875 1.68c-.63.63-1.295 1.12-2.1 1.434-1.224.42-2.554.7-3.92.63-1.294.07-2.659-.175-3.919-.63a5.488 5.488 0 01-2.1-1.434c-.42-.49-.734-1.05-.874-1.68-.14-.42-.14-.875-.175-1.295V8.259c0-.175.14-.315.315-.315h2.904c.175 0 .315.14.315.315v15.783c0 .385.07.805.14 1.19.14.315.245.63.49.875.315.315.63.56 1.05.7.63.175 1.225.315 1.855.315.63 0 1.295-.07 1.925-.315.385-.14.734-.315 1.05-.63.245-.245.42-.49.49-.805.14-.385.174-.805.174-1.225V8.26c0-.175.14-.315.245-.315h2.975c.175 0 .315.14.315.315l-.105 16.168zM47.769 8.014h1.995c.14 0 .244.14.244.245v.07l-.7 2.625c0 .14-.14.175-.244.175h-1.365c-.63 0-1.225.07-1.785.315-.385.14-.735.385-1.05.7a1.93 1.93 0 00-.49.804c-.07.245-.14.56-.14.805v16.134c0 .174-.14.314-.315.314h-2.974c-.14 0-.245-.14-.245-.314V13.053c0-.42.07-.874.175-1.294.14-.63.42-1.225.874-1.68.63-.63 1.295-1.12 2.1-1.435a9.33 9.33 0 013.92-.63zm-40.665 0c2.414 0 4.164.49 5.354 1.435a4.659 4.659 0 011.68 3.604v12.179c0 .56-.14 1.12-.315 1.61-.175.63-.56 1.19-1.05 1.61-.63.56-1.365.98-2.17 1.224a9.31 9.31 0 01-3.534.49c-1.19 0-2.415-.14-3.535-.49a5.458 5.458 0 01-2.1-1.224c-.49-.42-.875-.98-1.05-1.61-.175-.49-.245-1.05-.315-1.61v-1.925c0-.98.315-1.994.805-2.8a3.965 3.965 0 012.31-1.854c.49-.175 1.05-.315 1.68-.56.63-.245 1.225-.42 1.855-.63.63-.175 1.05-.385 1.54-.56.49-.175.734-.245.804-.315.14-.07.245-.14.42-.245.175-.14.385-.245.49-.42.175-.175.315-.385.42-.63.14-.245.175-.56.175-.875v-.875c0-.63-.315-1.224-.735-1.68-.315-.244-.7-.49-1.05-.63a4.156 4.156 0 00-1.75-.174c-1.364 0-2.31.315-2.799.875-.42.49-.7 1.12-.735 1.784 0 .14-.14.245-.245.245H.35a.314.314 0 01-.315-.315v-.734c0-.7.14-1.295.385-1.925.245-.63.7-1.19 1.225-1.61.63-.49 1.365-.875 2.17-1.05 1.12-.245 2.24-.315 3.29-.315zm3.534 10.884c-.07.245-.175.49-.42.63-.175.14-.385.245-.63.315-.42.14-.875.315-1.365.42-.49.14-.944.315-1.364.49-.42.174-.98.314-1.365.49-.315.175-.7.384-.945.56a5.89 5.89 0 00-.7.874c-.175.385-.315.875-.315 1.295-.07.875.175 1.68.735 2.345.49.49 1.435.735 2.8.735 1.364 0 2.31-.315 2.8-.805.56-.63.804-1.435.734-2.31v-5.04h.035zm47.7-10.884c2.414 0 4.164.49 5.354 1.435a4.659 4.659 0 011.68 3.604v12.179c0 .56-.14 1.12-.315 1.61-.175.63-.56 1.19-1.05 1.61a5.81 5.81 0 01-2.17 1.224 9.31 9.31 0 01-3.534.49c-1.19 0-2.415-.14-3.535-.49a5.46 5.46 0 01-2.1-1.224c-.49-.42-.875-.98-1.05-1.61-.175-.49-.245-1.05-.315-1.61v-1.925c0-.98.315-1.994.805-2.8a3.965 3.965 0 012.31-1.854c.49-.175 1.05-.315 1.68-.56.63-.245 1.225-.42 1.855-.63.63-.175 1.05-.385 1.54-.56.49-.175.734-.245.804-.315.14-.07.315-.14.42-.245.175-.14.385-.245.49-.42.175-.175.315-.385.42-.63.14-.245.175-.56.175-.875v-.875c0-.63-.315-1.224-.735-1.68-.315-.244-.7-.49-1.05-.63a5.719 5.719 0 00-1.75-.244c-1.364 0-2.31.315-2.8.875a3.023 3.023 0 00-.734 1.784c0 .14-.14.245-.245.245h-2.975c-.175 0-.315-.14-.245-.315v-.7c0-.7.14-1.294.385-1.924.245-.63.7-1.19 1.225-1.61.7-.49 1.435-.875 2.17-1.05 1.12-.21 2.205-.28 3.29-.28zm3.534 10.884c-.07.245-.175.49-.42.63-.175.14-.385.245-.63.315-.42.14-.875.315-1.365.42-.49.14-.944.315-1.364.49-.42.174-.98.314-1.365.49-.315.175-.7.384-.945.56a5.89 5.89 0 00-.7.874c-.245.385-.315.875-.315 1.295-.07.875.175 1.68.735 2.345.49.49 1.435.735 2.73.735 1.294 0 2.31-.315 2.8-.805.49-.63.804-1.435.734-2.31l.105-5.04z" fill="#4F4F4F"/><path d="M0 57.682c0 .281.245.562.56.562h11.164c.315 0 .56-.281.56-.562v-3.235a.577.577 0 00-.56-.563h-7.07V37.957c0-.282-.28-.563-.56-.563h-3.5a.577.577 0 00-.559.563v19.725H0zm15.153 0c0 .281.245.562.56.562h12.284c.315 0 .56-.281.56-.562v-3.235a.577.577 0 00-.56-.563h-8.224v-4.008h6.754c.28 0 .56-.246.56-.563V46.08c0-.282-.28-.563-.56-.563h-6.754v-3.692h8.224c.315 0 .56-.281.56-.562v-3.235a.577.577 0 00-.56-.563H15.713a.577.577 0 00-.56.563v19.655zm23.972.527c.105.176.28.316.49.316h.28a.51.51 0 00.49-.316l9.31-20.041c.174-.387-.07-.774-.49-.774H45.25c-.245 0-.455.176-.49.317l-4.9 10.864h-.175l-4.9-10.864c-.07-.141-.28-.317-.49-.317h-3.954c-.454 0-.665.387-.49.774l9.274 20.041zm13.054-.527c0 .281.245.562.56.562h12.283c.315 0 .56-.281.56-.562v-3.235a.577.577 0 00-.56-.563h-8.224v-4.008h6.755c.28 0 .56-.246.56-.563V46.08c0-.282-.28-.563-.56-.563h-6.755v-3.692h8.224c.315 0 .56-.281.56-.562v-3.235a.577.577 0 00-.56-.563H52.74a.577.577 0 00-.56.563v19.655zm17.393 0c0 .281.245.562.56.562h11.163c.315 0 .56-.281.56-.562v-3.235a.577.577 0 00-.56-.563h-7.069V37.957c0-.282-.28-.563-.56-.563h-3.534a.577.577 0 00-.56.563v19.725zm21.382-7.42c0 4.536 3.78 8.299 8.434 8.299 4.69 0 8.469-3.763 8.469-8.298V37.957c0-.282-.28-.563-.56-.563h-3.639a.577.577 0 00-.56.563v12.06c0 2.074-1.575 3.762-3.71 3.762-2.1 0-3.64-1.653-3.64-3.762v-12.06a.577.577 0 00-.56-.563H91.55c-.28 0-.56.281-.56.563v12.306h-.035zm21.698 7.42c0 .281.245.562.56.562h3.499c.28 0 .56-.281.56-.562v-6.997h3.115c3.604 0 6.614-3.024 6.614-6.716 0-3.622-3.01-6.575-6.649-6.575h-7.139a.577.577 0 00-.56.563v19.725zm4.619-11.357v-4.571h2.835c1.26 0 2.345.95 2.345 2.215a2.35 2.35 0 01-2.345 2.356h-2.835z" fill="#216FF4"/></svg>