<svg width="65" height="64" viewBox="0 0 65 64" fill="none" xmlns="http://www.w3.org/2000/svg">
<g clip-path="url(#clip0_977_8)">
<path fill-rule="evenodd" clip-rule="evenodd" d="M60.8095 28.6181L15.0409 45.2765L13.7083 44.591L18.7103 34.0851L8.82866 34.836L5.32715 29.3221L62.8646 12.6636L59.9888 21.3263L60.8095 28.6181Z" fill="#A475EF"/>
<path fill-rule="evenodd" clip-rule="evenodd" d="M46.9808 5.31476L41.3517 1.81325L2.95166 15.6984L5.95255 20.8255L6.87557 33.5772L63.2994 13.0417L60.6142 3.44169L51.1081 1.31689L46.9808 5.31476Z" fill="#BF94F7"/>
<path fill-rule="evenodd" clip-rule="evenodd" d="M48.1214 28.6492C48.1953 28.1415 48.2721 27.6181 48.3532 27.0848L48.3617 27.0236C48.7144 24.6428 49.0799 22.1796 49.316 19.7177C50.3713 15.8421 51.9699 13.3319 54.1999 12.0448C54.5181 11.8436 54.7461 11.5271 54.8362 11.1616C54.9263 10.7961 54.8715 10.41 54.6833 10.0839C54.4951 9.75791 54.1881 9.51732 53.8266 9.41254C53.465 9.30776 53.0769 9.3469 52.7436 9.52177C51.4846 10.2594 50.3856 11.241 49.5109 12.4089C49.3302 9.90009 48.8424 7.87911 48.0175 6.24782C49.9148 3.40337 52.7678 2.29688 55.8682 3.21848C57.6612 3.76912 59.2118 4.91678 60.2623 6.47072C61.3127 8.02466 61.7998 9.89129 61.6424 11.7604C61.5386 13.2892 60.7621 14.8181 59.9358 16.4395C58.7283 18.8089 57.4796 21.2608 58.1409 24.1052C58.8435 27.1161 58.6103 29.7401 57.4839 31.4894C56.7443 32.6414 55.6179 33.3739 54.1416 33.6697C52.5061 33.9996 51.0625 33.637 49.5237 33.253C48.9224 33.0969 48.3168 32.9585 47.7075 32.8377C47.7473 31.6473 47.881 30.3104 48.1214 28.6492ZM35.2815 57.2103L35.2047 58.0864C35.0725 59.6167 34.0286 61.1655 32.2892 61.1655C30.547 61.1655 29.503 59.6167 29.3708 58.0864L26.4979 24.7467C26.3443 23.0457 24.9946 21.5424 23.726 20.8071C23.3914 20.615 22.9944 20.5628 22.6216 20.6619C22.2487 20.761 21.93 21.0033 21.7349 21.3362C21.542 21.6706 21.4894 22.0678 21.5886 22.4409C21.6877 22.814 21.9305 23.1327 22.2639 23.3273C22.8641 23.6743 23.5439 24.4124 23.5966 25.0012L24.3503 33.7422C22.9708 33.0852 21.6339 32.7211 20.2828 32.6329C20.2316 31.3685 20.0936 30.0018 19.8362 28.2311L19.6044 26.6553C18.6401 20.1671 17.3217 11.2811 19.9514 7.03573L19.9983 6.96035C20.1475 6.72715 20.3129 6.50474 20.4933 6.29475C21.54 5.08017 23.0305 4.48995 25.0501 4.48995C25.9532 4.48995 27.0142 5.02613 28.1391 5.59502C29.5187 6.29191 30.9438 7.01155 32.5381 7.01155C34.1324 7.01155 35.5575 6.29191 36.9384 5.5936C38.062 5.02613 39.123 4.48995 40.0247 4.48995C42.0442 4.48995 43.5347 5.08017 44.5829 6.29617C44.7815 6.52597 44.9613 6.77139 45.1205 7.03004C47.7544 11.2796 46.4346 20.1671 45.4718 26.6567C45.3907 27.1943 45.3125 27.7205 45.2385 28.2311C45.0636 29.4414 44.8574 31.0229 44.7948 32.6329C43.2744 32.7324 41.7669 33.1819 40.2039 34.0053L40.979 25.0069C41.0316 24.4153 41.7114 23.6743 42.3116 23.3287C43.0056 22.9234 43.2431 22.0302 42.8407 21.3376C42.6465 21.0041 42.3283 20.7609 41.9555 20.6613C41.5827 20.5616 41.1856 20.6135 40.851 20.8057C39.5809 21.5424 38.2312 23.0485 38.0776 24.7523L36.2757 45.6676C36.2686 45.7074 36.2472 45.7401 36.243 45.7813L35.2787 57.1904L35.2815 57.2103ZM24.3375 37.0532C22.5996 42.2158 18.8478 43.941 15.7487 44.4316C17.5578 42.7932 18.7923 40.9728 19.5091 38.885C19.8709 37.8042 20.1057 36.6849 20.2088 35.5499C21.5372 35.6565 22.8598 36.1372 24.3375 37.0532ZM44.8659 35.5499C44.9839 36.7644 45.2143 37.8581 45.5671 38.8836C46.2839 40.9742 47.5169 42.7947 49.326 44.4316C46.227 43.941 42.4766 42.2172 40.7372 37.0532C42.2163 36.1372 43.5361 35.6565 44.8659 35.5499ZM64.457 12.7403L64.4542 9.472C63.8198 5.12426 60.846 1.65831 56.6974 0.426662C54.5498 -0.213338 52.3596 -0.133693 50.3685 0.654218C48.7685 1.28284 47.3718 2.33671 46.2113 3.7888C44.6511 2.32106 42.5719 1.57724 40.0261 1.57724C38.4303 1.57724 37.0053 2.29688 35.6271 2.99377C34.5036 3.56266 33.4426 4.09742 32.5409 4.09742C31.6378 4.09742 30.5783 3.56124 29.4504 2.99377C28.0709 2.29688 26.6458 1.57724 25.0501 1.57724C22.5057 1.57724 20.4278 2.32106 18.8662 3.7888C18.4079 3.21376 17.8934 2.68588 17.3302 2.21297C17.0324 1.96667 16.6492 1.8483 16.2644 1.88375C15.8795 1.91919 15.5244 2.10557 15.2766 2.40213C15.0304 2.69948 14.9121 3.08224 14.9476 3.46662C14.983 3.85099 15.1693 4.20566 15.4657 4.45297C16.0531 4.94222 16.5893 5.54524 17.0586 6.24924C16.2366 7.87769 15.7459 9.90009 15.5653 12.4089C14.6909 11.2407 13.5918 10.2591 12.3326 9.52177C12.167 9.42555 11.9841 9.36301 11.7944 9.33774C11.6046 9.31247 11.4117 9.32498 11.2268 9.37455C11.0419 9.42412 10.8686 9.50977 10.7169 9.62656C10.5652 9.74336 10.4381 9.889 10.3429 10.0551C10.247 10.2206 10.1849 10.4035 10.16 10.5932C10.1351 10.7828 10.1479 10.9755 10.1978 11.1602C10.2974 11.5356 10.5391 11.8485 10.8748 12.0448C13.1077 13.3319 14.7048 15.8421 15.7544 19.6836C16.0033 22.2393 16.3859 24.8135 16.7244 27.0834L16.9548 28.6492C17.1966 30.3075 17.3288 31.6459 17.3701 32.8391C16.7549 32.9597 16.1435 33.0992 15.5368 33.2572C14.0108 33.6384 12.5758 33.9982 10.9345 33.6697C9.45825 33.3739 8.33327 32.64 7.59229 31.4908C6.46589 29.7387 6.23265 27.1147 6.93523 24.1038C7.59798 21.2594 6.34927 18.8089 5.14038 16.438C4.31549 14.8181 3.53754 13.2892 3.43372 11.7604C3.25452 9.11502 4.25434 6.62044 6.1786 4.91662C6.46874 4.66062 6.64083 4.30222 6.66358 3.91395C6.67596 3.72324 6.65026 3.53197 6.588 3.35129C6.52574 3.1706 6.42815 3.00411 6.30091 2.86151C6.17467 2.7178 6.02117 2.60057 5.8493 2.51659C5.67744 2.43261 5.49062 2.38355 5.29967 2.37226C5.10818 2.3585 4.91589 2.3838 4.73449 2.44663C4.55308 2.50946 4.38633 2.60852 4.24438 2.73777C1.64029 5.0432 0.286337 8.40391 0.528115 11.958C0.67176 14.0843 1.62465 15.9545 2.54767 17.7636C3.56172 19.7547 4.51887 21.6348 4.09789 23.4411C3.21612 27.2299 3.58589 30.6475 5.14323 33.0652C6.30945 34.8786 8.11567 36.0747 10.3628 36.5255C12.6398 36.9835 14.473 36.5269 16.2451 36.0846L16.2977 36.0704C16.6177 35.9908 16.9292 35.9111 17.2421 35.8428C16.7244 39.542 14.6906 42.1831 10.4979 44.6279C10.239 44.7798 10.0334 45.0079 9.909 45.2811C9.78463 45.5543 9.74761 45.8592 9.803 46.1542C9.85839 46.4492 10.0035 46.7199 10.2185 46.9293C10.4335 47.1388 10.7079 47.2768 11.0042 47.3244C12.0225 47.4852 15.6307 47.8948 19.2844 46.4782C21.6098 45.5931 23.621 44.0392 25.0643 42.0124L26.4695 58.3353C26.7511 61.6092 29.2527 64.0811 32.2892 64.0811C35.3256 64.0811 37.8273 61.6092 38.1089 58.3353L38.1999 57.2629V57.2601L39.1358 46.2037C39.14 46.1724 39.1585 46.1468 39.1614 46.1141L39.571 41.3582C41.0306 43.6983 43.2158 45.4965 45.7932 46.4782C47.9848 47.3273 50.1523 47.5051 51.583 47.5051C52.7493 47.5051 53.6453 47.3913 54.0719 47.3244C54.6792 47.2292 55.1642 46.7598 55.278 46.1554C55.3332 45.86 55.296 45.5548 55.1712 45.2814C55.0465 45.008 54.8404 44.7798 54.5811 44.6279C50.387 42.1817 48.3532 39.5406 47.8369 35.8414C48.1498 35.9125 48.4627 35.9908 48.7813 36.0704L48.8339 36.0846C50.606 36.5255 52.4378 36.9835 54.7148 36.5255C56.9633 36.0747 58.7681 34.8786 59.9343 33.0652C61.4902 30.6475 61.8629 27.227 60.9811 23.4411C60.5587 21.632 61.5173 19.7518 62.5327 17.7607C63.3306 16.192 64.1569 14.5692 64.457 12.7403Z" fill="#031326"/>
<path fill-rule="evenodd" clip-rule="evenodd" d="M34.9846 26.3794H29.3241C29.0412 26.3794 28.7699 26.4918 28.5699 26.6918C28.3698 26.8918 28.2575 27.1632 28.2575 27.4461C28.2575 27.729 28.3698 28.0003 28.5699 28.2003C28.7699 28.4003 29.0412 28.5127 29.3241 28.5127H34.9846C35.2675 28.5127 35.5388 28.4003 35.7388 28.2003C35.9389 28.0003 36.0512 27.729 36.0512 27.4461C36.0512 27.1632 35.9389 26.8918 35.7388 26.6918C35.5388 26.4918 35.2675 26.3794 34.9846 26.3794ZM34.181 34.752H30.1277C29.8448 34.752 29.5735 34.8644 29.3734 35.0644C29.1734 35.2645 29.061 35.5358 29.061 35.8187C29.061 36.1016 29.1734 36.3729 29.3734 36.5729C29.5735 36.773 29.8448 36.8853 30.1277 36.8853H34.181C34.4639 36.8853 34.7352 36.773 34.9353 36.5729C35.1353 36.3729 35.2477 36.1016 35.2477 35.8187C35.2477 35.5358 35.1353 35.2645 34.9353 35.0644C34.7352 34.8644 34.4639 34.752 34.181 34.752ZM33.2295 43.1261H31.0777C30.7948 43.1261 30.5235 43.2384 30.3235 43.4385C30.1234 43.6385 30.0111 43.9098 30.0111 44.1927C30.0111 44.4756 30.1234 44.7469 30.3235 44.947C30.5235 45.147 30.7948 45.2594 31.0777 45.2594H33.231C33.5139 45.2594 33.7852 45.147 33.9852 44.947C34.1853 44.7469 34.2976 44.4756 34.2976 44.1927C34.2976 43.9098 34.1853 43.6385 33.9852 43.4385C33.7852 43.2384 33.5124 43.1261 33.2295 43.1261ZM32.8399 51.4987H31.4688C31.1859 51.4987 30.9146 51.6111 30.7146 51.8111C30.5145 52.0111 30.4022 52.2824 30.4022 52.5653C30.4022 52.8482 30.5145 53.1196 30.7146 53.3196C30.9146 53.5196 31.1859 53.632 31.4688 53.632H32.8399C33.1228 53.632 33.3941 53.5196 33.5941 53.3196C33.7941 53.1196 33.9065 52.8482 33.9065 52.5653C33.9065 52.2824 33.7941 52.0111 33.5941 51.8111C33.3941 51.6111 33.1228 51.4987 32.8399 51.4987ZM38.5131 13.2452C38.6334 13.1733 38.7383 13.0784 38.8219 12.9659C38.9055 12.8534 38.9662 12.7256 39.0004 12.5897C39.0346 12.4538 39.0417 12.3125 39.0213 12.1739C39.0009 12.0352 38.9534 11.902 38.8815 11.7817C38.8096 11.6614 38.7147 11.5565 38.6022 11.4729C38.4897 11.3893 38.3619 11.3286 38.226 11.2944C38.0901 11.2602 37.9488 11.2531 37.8102 11.2735C37.6715 11.2939 37.5383 11.3414 37.418 11.4133C30.8871 15.3131 26.9263 11.7163 26.7542 11.5556C26.5503 11.3613 26.2777 11.2558 25.9962 11.2622C25.7147 11.2686 25.4471 11.3864 25.2523 11.5897C25.1549 11.6904 25.0783 11.8094 25.027 11.9397C24.9757 12.0701 24.9507 12.2093 24.9533 12.3494C24.956 12.4895 24.9862 12.6276 25.0424 12.756C25.0986 12.8843 25.1796 13.0003 25.2807 13.0973C25.3149 13.1314 27.6729 15.3358 31.6381 15.3358C33.5723 15.3358 35.8934 14.8082 38.5131 13.2452Z" fill="#031326"/>
</g>
<defs>
<clipPath id="clip0_977_8">
<rect width="64" height="64" fill="white" transform="translate(0.5)"/>
</clipPath>
</defs>
</svg>
