<svg width="64" height="64" viewBox="0 0 64 64" fill="none" xmlns="http://www.w3.org/2000/svg">
<g clip-path="url(#clip0_908_531)">
<path d="M32 64C49.6731 64 64 49.6731 64 32C64 14.3269 49.6731 0 32 0C14.3269 0 0 14.3269 0 32C0 49.6731 14.3269 64 32 64Z" fill="#D9E4F0"/>
<path d="M53.6102 23.3002C53.6102 23.3002 53.1802 20.3002 51.8602 18.9802C50.6822 17.8155 49.0967 17.1555 47.4402 17.1402C41.2702 16.7002 32.0002 16.7002 32.0002 16.7002C32.0002 16.7002 22.7402 16.7002 16.5702 17.1402C14.9074 17.1582 13.3175 17.8257 12.1402 19.0002C10.8202 20.3202 10.3902 23.3202 10.3902 23.3202C10.1177 25.6439 9.97077 27.9806 9.9502 30.3202V33.6202C9.97077 35.9597 10.1177 38.2965 10.3902 40.6202C10.3902 40.6202 10.8202 43.6202 12.1402 44.9402C13.8202 46.7402 16.0002 46.6802 17.0002 46.8602C20.5202 47.2002 32.0002 47.3002 32.0002 47.3002C32.0002 47.3002 41.2702 47.3002 47.4402 46.8502C49.0977 46.8302 50.6826 46.1668 51.8602 45.0002C53.1802 43.6802 53.6102 40.6802 53.6102 40.6802C53.8827 38.3565 54.0296 36.0197 54.0502 33.6802V30.3802C54.0325 28.0139 53.8856 25.6504 53.6102 23.3002ZM27.4502 37.6402V25.4202L39.3602 31.5502L27.4502 37.6402Z" fill="#216FF4"/>
</g>
<defs>
<clipPath id="clip0_908_531">
<rect width="64" height="64" fill="white"/>
</clipPath>
</defs>
</svg>
